<?xml version="1.0" standalone="no"?>
<!DOCTYPE svg PUBLIC "-//W3C//DTD SVG 20010904//EN"
 "http://www.w3.org/TR/2001/REC-SVG-20010904/DTD/svg10.dtd">
<svg version="1.0" xmlns="http://www.w3.org/2000/svg"
 width="500.000000pt" height="500.000000pt" viewBox="0 0 16 16"
 preserveAspectRatio="xMidYMid meet">
<metadata>
Created by potrace 1.14, written by Peter Selinger 2001-2017
</metadata>
<g transform="translate(0.000000,500.000000) scale(0.100000,-0.100000)"
fill="#000000" stroke="none">
<path d="M4566 4421 c-40 -16 -41 -91 -1 -91 24 0 45 -32 25 -38 -6 -2 -17
-17 -25 -33 -9 -16 -23 -28 -33 -27 -40 3 -63 -3 -83 -23 -13 -13 -27 -18 -37
-14 -16 6 -15 8 1 20 28 20 18 49 -19 53 -40 4 -63 -20 -43 -45 10 -11 10 -14
2 -9 -7 4 -13 3 -13 -2 0 -6 -24 -8 -57 -5 -42 4 -74 0 -113 -14 -55 -18 -57
-18 -88 0 -30 18 -35 18 -80 3 -44 -15 -53 -15 -91 -1 -84 29 -230 10 -223
-30 3 -17 3 -17 -14 -1 -14 15 -27 16 -78 10 -34 -4 -78 -6 -98 -5 -21 1 -38
-3 -38 -8 0 -6 -19 -1 -42 9 -24 11 -56 19 -73 19 l-30 -1 30 -8 c27 -7 25 -8
-18 -9 -30 -1 -46 3 -42 9 9 15 -42 12 -74 -5 -26 -13 -30 -13 -41 0 -16 19
-65 19 -82 1 -9 -10 -19 -11 -35 -3 -15 6 -39 7 -70 0 -37 -7 -57 -6 -83 5
-42 17 -239 18 -320 1 -30 -6 -65 -11 -78 -10 -13 0 -32 -4 -42 -9 -13 -7 -21
-7 -25 0 -9 15 -53 12 -80 -6 -17 -11 -29 -13 -38 -6 -13 11 -54 18 -172 32
-58 6 -99 5 -150 -5 -48 -9 -119 -11 -225 -8 -85 2 -164 5 -175 5 -11 0 -47
-4 -80 -10 -40 -6 -64 -6 -73 0 -7 6 -32 8 -57 6 -25 -3 -48 -2 -51 3 -8 14
-22 11 -45 -12 l-21 -21 4 24 c2 13 13 27 25 33 26 11 32 31 7 21 -9 -3 -20
-6 -25 -6 -5 0 -18 -9 -29 -20 -15 -15 -20 -16 -20 -6 0 8 9 21 21 29 14 11
17 16 7 19 -19 7 -78 -44 -78 -67 0 -17 -2 -17 -10 -5 -5 8 -10 25 -10 37 0
16 -5 20 -20 16 -11 -3 -20 -8 -20 -12 0 -11 -49 -7 -99 8 -53 15 -121 7 -153
-18 -22 -18 -23 -18 -61 7 -69 46 -206 37 -249 -16 -9 -12 -4 -10 22 5 49 30
127 39 165 19 17 -9 30 -21 30 -28 0 -7 7 -13 15 -13 10 0 14 -10 14 -32 -2
-41 -10 -63 -26 -63 -9 0 -9 3 0 12 21 21 13 50 -24 84 -29 28 -43 34 -80 34
-54 0 -92 -18 -128 -60 -27 -33 -36 -29 -11 4 12 16 12 22 0 47 -15 28 -30 35
-78 38 -16 0 -33 3 -38 7 -12 7 -12 34 1 34 5 0 14 9 20 21 18 32 -11 69 -54
69 -34 0 -67 -25 -65 -51 0 -8 5 -4 11 9 6 12 15 22 20 22 5 0 6 -4 3 -10 -3
-6 4 -10 17 -11 15 0 18 -3 8 -6 -8 -3 -18 -11 -22 -17 -12 -18 -9 -70 5 -91
15 -24 15 -31 -3 -68 -10 -21 -11 -35 -3 -56 8 -21 7 -32 -3 -46 -17 -23 -18
-46 -2 -80 12 -27 48 -35 48 -10 0 19 24 20 38 2 9 -10 6 -23 -8 -50 -23 -43
-25 -75 -6 -102 7 -11 16 -32 20 -47 10 -43 53 -87 92 -94 20 -4 38 -12 41
-19 6 -19 -15 -55 -32 -55 -11 0 -12 -6 -5 -24 5 -13 6 -33 3 -44 -9 -37 81
-69 107 -37 16 19 3 37 -21 30 -13 -4 -19 -2 -19 9 0 9 5 16 10 16 6 0 24 14
42 30 25 25 39 30 78 30 31 0 54 6 68 19 18 15 40 18 123 20 56 1 106 4 112 8
5 3 17 -4 26 -15 23 -30 81 -52 109 -41 24 9 28 19 11 36 -22 22 2 36 50 30
25 -3 70 -1 98 5 42 9 56 8 69 -3 9 -7 42 -14 73 -15 31 -1 74 -7 96 -13 40
-11 137 -5 165 9 9 5 30 2 49 -6 38 -16 104 -18 130 -4 15 7 20 4 29 -15 13
-28 58 -34 92 -13 15 10 25 10 38 2 13 -9 17 -27 18 -88 1 -43 4 -91 8 -107 3
-16 2 -38 -4 -47 -5 -9 -16 -39 -24 -66 -17 -54 -9 -86 23 -86 11 0 23 -12 31
-29 15 -36 10 -97 -8 -93 -47 9 -68 -54 -24 -73 14 -6 20 -15 16 -25 -33 -80
-41 -174 -23 -260 9 -43 8 -54 -4 -68 -9 -9 -23 -39 -32 -65 -15 -45 -15 -52
0 -98 9 -27 22 -49 28 -50 7 -1 21 -2 32 -3 14 -1 24 -13 32 -39 16 -49 8 -87
-17 -82 -10 2 -23 -2 -29 -9 -11 -13 -13 -93 -3 -110 2 -4 6 -29 8 -53 2 -25
11 -57 20 -70 12 -20 13 -31 5 -55 -21 -58 -13 -123 24 -212 7 -15 5 -17 -13
-12 -14 5 -31 1 -46 -11 -22 -15 -25 -26 -26 -75 0 -46 5 -62 24 -85 19 -22
26 -25 38 -15 31 25 38 -22 12 -84 -12 -27 -14 -54 -10 -91 4 -31 2 -54 -4
-58 -13 -8 -13 -160 0 -184 7 -14 3 -26 -15 -50 -49 -67 -56 -180 -14 -220 16
-15 19 -26 14 -50 -5 -26 -11 -30 -43 -33 -32 -3 -37 -7 -40 -32 -2 -18 4 -36
17 -50 17 -19 18 -23 5 -40 -16 -23 -19 -89 -4 -116 11 -20 1 -33 -16 -22 -6
4 -13 13 -15 21 -7 20 -42 -17 -36 -39 3 -12 -1 -16 -17 -13 -11 2 -32 -6 -46
-17 l-25 -20 127 2 c70 1 125 4 123 8 -2 3 24 3 58 -2 34 -4 103 -8 152 -8 50
0 232 -2 406 -5 292 -5 317 -4 323 11 10 26 -8 38 -41 27 -31 -11 -56 -7 -48
8 9 13 -14 49 -30 49 -8 0 -15 -7 -15 -15 0 -17 -9 -19 -28 -6 -8 5 -12 21
-10 37 3 25 7 29 30 26 22 -2 29 2 34 22 3 13 14 26 25 29 37 10 14 96 -37
136 -15 12 -22 25 -18 34 3 9 -1 29 -9 44 -29 56 -35 89 -21 108 30 40 9 174
-28 188 -10 3 -9 12 5 35 24 41 15 87 -25 132 -53 61 -59 110 -13 110 31 0 68
47 60 75 -3 11 -9 43 -13 70 -5 28 -12 57 -17 64 -5 9 -4 12 2 8 20 -13 32 60
14 79 -17 16 -17 305 -1 334 23 42 19 139 -8 183 -12 21 -20 42 -17 46 2 4 0
25 -6 45 -8 29 -7 52 6 102 13 51 16 112 15 282 -1 119 3 235 7 257 6 24 6 52
0 70 -10 31 -16 185 -7 185 3 0 16 16 29 35 15 23 21 41 16 52 -17 41 -23 97
-12 121 8 17 8 28 -1 43 -19 29 -15 45 19 73 30 25 56 35 45 17 -3 -5 2 -19
12 -31 16 -20 21 -21 60 -10 29 7 46 18 52 34 11 30 66 38 158 25 49 -7 77 -7
104 2 29 9 41 9 52 0 18 -15 76 -18 84 -4 4 6 23 9 42 6 50 -7 50 -7 103 1 43
7 47 6 47 -13 0 -28 53 -29 72 -2 18 25 60 36 86 22 43 -23 187 -14 245 16 25
13 28 12 38 -11 17 -36 61 -51 115 -39 35 8 46 7 56 -4 9 -11 7 -15 -10 -20
-26 -6 -30 -41 -5 -50 9 -4 36 4 62 18 60 31 75 71 54 141 -10 35 -11 53 -3
68 12 23 45 28 37 6 -8 -20 18 -39 41 -32 29 10 57 47 71 94 10 37 10 52 -5
98 -14 44 -14 59 -4 83 11 28 40 50 40 31 0 -5 8 -10 18 -12 42 -9 69 84 37
126 -21 27 -19 35 11 46 23 9 25 14 18 43 -4 17 -7 48 -6 67 3 47 -14 85 -44
99 -28 12 -31 13 -58 2z m48 -39 c3 -10 9 -24 13 -32 4 -10 1 -10 -11 3 -20
19 -32 22 -41 7 -11 -18 -25 -11 -25 13 0 13 2 26 5 29 11 10 53 -4 59 -20z
m10 -117 c-4 -8 -12 -15 -20 -15 -9 0 -14 -11 -14 -27 0 -20 -3 -24 -11 -16
-13 13 -3 67 11 58 5 -3 11 -1 15 5 10 16 25 12 19 -5z m-214 -14 c0 -5 -10
-11 -22 -15 -34 -9 -38 -7 -32 9 6 16 54 21 54 6z m-3985 -39 c-3 -3 -11 0
-18 7 -9 10 -8 11 6 5 10 -3 15 -9 12 -12z m4182 -14 c-3 -7 -5 -2 -5 12 0 14
2 19 5 13 2 -7 2 -19 0 -25z m-89 13 c-20 -4 -44 -13 -52 -21 -13 -10 -16 -10
-16 3 0 18 20 25 70 25 l35 0 -37 -7z m-4039 -10 c7 -5 12 -13 10 -18 -2 -5
-12 -1 -21 9 -19 19 -13 24 11 9z m505 -6 c-7 -17 7 -20 23 -4 8 8 19 6 39 -5
l29 -15 -27 -1 c-15 0 -30 -4 -33 -10 -4 -6 7 -8 27 -4 44 7 16 -11 -31 -20
-27 -5 -32 -3 -27 9 4 12 2 13 -13 6 -10 -6 -21 -7 -25 -4 -3 3 -6 1 -6 -7 0
-10 -3 -10 -15 0 -12 10 -16 8 -23 -10 -8 -20 -10 -21 -23 -8 -12 14 -15 14
-26 -1 -11 -15 -12 -15 -13 0 0 9 9 27 20 40 13 17 19 19 20 9 0 -10 5 -7 16
8 19 27 30 28 37 2 3 -11 11 -20 19 -20 10 0 9 3 -2 10 -13 9 -12 12 4 25 25
19 37 19 30 0z m2921 -10 c44 -18 92 -70 100 -107 8 -34 31 -37 39 -5 6 24 65
91 74 83 2 -3 -7 -19 -21 -36 -14 -16 -36 -48 -48 -70 -13 -22 -25 -40 -29
-40 -3 0 -11 20 -18 44 -12 46 -50 99 -86 118 -11 7 -55 15 -96 18 l-75 7 63
1 c36 1 78 -4 97 -13z m378 8 c-13 -2 -33 -2 -45 0 -13 2 -3 4 22 4 25 0 35
-2 23 -4z m234 -6 c0 -7 -10 -18 -23 -24 -18 -8 -21 -7 -20 5 2 9 11 19 22 23
10 4 19 8 20 8 0 1 1 -5 1 -12z m-477 -9 c-33 -13 -70 -17 -70 -7 0 7 34 15
75 17 16 1 15 -1 -5 -10z m145 2 c-27 -12 -43 -12 -25 0 8 5 22 9 30 9 10 0 8
-3 -5 -9z m-1292 -13 c28 -12 27 -12 -20 -13 -33 -1 -42 1 -28 7 13 5 -1 8
-40 8 -45 0 -55 -3 -40 -10 15 -7 13 -8 -12 -3 -17 3 -34 0 -38 -5 -3 -6 -17
-8 -32 -5 -18 5 -24 3 -19 -4 5 -8 2 -10 -8 -6 -9 3 -16 1 -16 -5 0 -6 -3 -10
-7 -10 -20 3 -33 -2 -30 -13 1 -7 -3 -12 -10 -13 -16 0 -53 -41 -45 -49 3 -4
-2 -4 -11 0 -10 3 -17 3 -15 -2 4 -15 -13 -54 -23 -54 -6 0 -7 -4 -4 -10 4 -6
-1 -7 -11 -3 -15 5 -15 7 0 15 11 6 14 17 10 32 -8 34 19 90 58 120 48 36 66
33 23 -5 -19 -17 -35 -39 -35 -48 0 -14 10 -9 39 19 22 21 59 45 83 53 52 19
192 21 231 4z m261 -3 c9 -23 7 -44 -3 -44 -5 0 -8 8 -7 18 0 9 -6 18 -14 18
-8 1 -22 2 -30 3 -13 1 -13 2 0 11 23 15 47 12 54 -6z m88 1 c-21 -9 -31 -19
-26 -26 4 -8 3 -9 -4 -5 -15 9 -16 -6 -2 -22 5 -7 3 -6 -5 1 -20 17 -10 46 19
57 36 15 53 10 18 -5z m-2792 -10 c0 -8 -7 -15 -15 -15 -13 0 -14 3 -3 15 16
18 18 18 18 0z m1580 11 c0 -2 -7 -7 -16 -10 -8 -3 -12 -2 -9 4 6 10 25 14 25
6z m80 -5 c0 -6 -4 -12 -8 -15 -5 -3 -9 1 -9 9 0 8 4 15 9 15 4 0 8 -4 8 -9z
m122 -2 c11 -6 26 -27 35 -46 13 -31 13 -38 0 -50 -11 -12 -16 -12 -22 -2 -5
8 -4 10 3 5 16 -10 15 0 -5 41 -10 21 -29 41 -47 49 -28 12 -28 13 -8 14 13 0
32 -5 44 -11z m811 -9 c4 -16 0 -20 -21 -19 -15 0 -21 3 -14 6 26 10 10 22
-25 18 -35 -4 -36 -4 -8 4 49 14 62 12 68 -9z m367 10 c8 -5 11 -10 5 -10 -5
0 -17 5 -25 10 -8 5 -10 10 -5 10 6 0 17 -5 25 -10z m203 -15 c-5 -25 -33 -57
-33 -37 0 5 -9 12 -20 15 -11 3 -20 12 -20 21 0 19 26 22 32 4 3 -9 9 -8 22 5
23 22 24 22 19 -8z m288 -28 c22 -22 40 -43 40 -46 6 -26 4 -69 -2 -83 -6 -10
-4 -18 4 -21 6 -3 8 -6 2 -6 -5 0 -17 4 -25 10 -11 8 -12 12 -2 16 14 6 16 69
2 78 -6 4 -8 10 -5 14 5 10 -19 33 -55 51 -29 16 -101 14 -111 -2 -4 -6 -12
-7 -19 -3 -7 4 -24 -4 -41 -21 -16 -15 -29 -23 -29 -18 0 18 47 55 87 70 59
21 109 9 154 -39z m724 25 c2 -12 -1 -25 -7 -28 -6 -4 -8 -3 -4 4 3 5 1 12 -5
14 -5 2 -7 11 -3 21 8 21 13 18 19 -11z m-3378 -14 c-3 -7 -5 -2 -5 12 0 14 2
19 5 13 2 -7 2 -19 0 -25z m78 12 c-10 -11 -20 -18 -23 -15 -7 6 18 35 31 35
5 0 2 -9 -8 -20z m85 10 c0 -5 -11 -10 -25 -10 -14 0 -25 5 -25 10 0 6 11 10
25 10 14 0 25 -4 25 -10z m333 -10 c45 -24 51 -25 43 -2 -6 16 -5 16 8 0 7
-10 19 -18 25 -18 7 0 9 -5 6 -10 -5 -8 -12 -7 -23 2 -13 12 -14 10 -4 -9 7
-12 12 -38 12 -58 0 -29 3 -36 15 -31 19 7 20 -10 1 -21 -7 -4 -16 -15 -19
-23 -3 -8 -6 6 -6 32 -1 26 -6 58 -12 71 -15 34 -103 80 -139 72 -38 -8 -71
-41 -63 -63 5 -14 3 -15 -8 -5 -11 11 -10 18 7 40 34 45 98 55 157 23z m107
16 c0 -2 -7 -6 -15 -10 -8 -3 -15 -1 -15 4 0 6 7 10 15 10 8 0 15 -2 15 -4z
m607 -10 c10 4 32 8 48 8 l30 1 -36 -36 c-37 -37 -52 -80 -42 -118 8 -30 -6
-26 -18 5 -12 34 -5 57 32 99 36 41 20 59 -19 22 -31 -30 -72 -32 -72 -5 0 23
31 40 47 26 7 -6 20 -7 30 -2z m1058 4 c4 -6 -5 -10 -19 -10 -14 0 -26 5 -26
10 0 6 9 10 19 10 11 0 23 -4 26 -10z m545 1 c0 -10 -40 -19 -59 -13 -11 4
-11 6 0 13 18 11 59 11 59 0z m300 -39 c39 -40 50 -62 30 -62 -5 0 -10 7 -10
16 0 11 -5 14 -16 10 -13 -5 -15 -2 -11 14 4 17 3 19 -9 9 -11 -9 -15 -8 -20
4 -3 9 -12 13 -20 10 -8 -3 -14 1 -14 8 -1 10 -5 8 -14 -4 -8 -10 -17 -14 -20
-8 -10 15 -111 -22 -120 -45 -4 -11 -2 -12 14 -4 36 19 45 10 10 -11 -55 -34
-80 -62 -80 -91 0 -15 -5 -30 -11 -34 -11 -6 -10 16 4 99 11 58 39 82 122 100
14 3 11 5 -10 7 l-30 2 30 14 c18 9 51 13 82 11 46 -3 58 -9 93 -45z m-3893
-9 c4 -20 8 -22 21 -11 11 10 11 5 -3 -17 -26 -41 -29 -43 -21 -19 4 14 0 27
-14 39 -19 17 -21 17 -33 1 -14 -19 -42 -13 -51 11 -12 29 10 41 54 29 29 -7
42 -17 47 -33z m144 34 c-6 -8 -7 -18 -3 -22 4 -5 1 -5 -5 -1 -7 4 -14 4 -14
-1 -1 -4 -3 -18 -4 -29 -1 -12 -5 -26 -9 -32 -3 -6 -2 -13 4 -17 5 -3 15 -15
20 -25 10 -18 9 -19 -14 -9 -35 16 -49 54 -35 96 7 22 16 33 24 29 8 -3 19 2
25 10 7 8 15 14 17 14 3 0 0 -6 -6 -13z m927 6 c-10 -2 -28 -2 -40 0 -13 2 -5
4 17 4 22 1 32 -1 23 -4z m425 -5 c-4 -7 -8 -17 -8 -23 -1 -5 -6 -9 -12 -8
-16 3 -75 -95 -67 -110 4 -7 4 -9 -1 -5 -9 8 -56 -45 -59 -69 -2 -9 -10 -17
-20 -19 -9 -1 -24 -8 -32 -15 -19 -15 -94 -24 -94 -10 0 5 -9 7 -20 4 -14 -4
-20 0 -20 11 0 25 -28 31 -50 11 -22 -20 -26 -10 -7 20 8 14 22 20 42 19 50
-1 53 -3 57 -26 3 -20 9 -23 46 -22 34 1 50 7 79 35 40 38 63 85 63 127 0 18
9 36 22 48 17 14 20 15 9 2 -7 -9 -10 -22 -6 -28 9 -15 25 -2 25 20 0 10 7 26
16 34 19 19 49 22 37 4z m1692 -14 c-9 -14 -18 -35 -20 -46 -3 -11 -7 -23 -11
-27 -14 -13 7 64 23 81 23 26 28 22 8 -8z m-2497 -7 c23 -18 54 -16 47 2 -4
11 -3 13 4 6 6 -6 12 -23 13 -37 1 -17 7 -24 15 -21 9 4 10 9 3 18 -7 8 -5 12
5 12 8 0 12 -3 10 -7 -8 -12 26 -50 43 -49 15 1 15 2 -1 6 -9 2 -15 9 -11 14
7 13 34 -8 34 -27 0 -7 6 -11 14 -8 7 3 16 -2 20 -12 5 -14 4 -15 -9 -4 -12
10 -16 9 -23 -10 l-8 -23 -32 31 c-39 38 -72 48 -102 32 -17 -9 -24 -9 -30 0
-5 8 -9 7 -13 -4 -4 -9 -11 -16 -17 -16 -6 0 -8 5 -5 10 4 6 1 17 -5 25 -10
12 -10 18 0 30 10 12 10 15 -4 15 -21 0 -20 10 1 26 18 12 25 11 51 -9z m298
2 c-17 -25 -11 -50 11 -42 11 4 14 2 9 -5 -10 -16 -46 -15 -47 1 0 6 -2 22 -3
34 -1 12 0 20 4 18 3 -2 12 0 20 6 22 13 23 11 6 -12z m1975 1 c43 -23 53 -35
45 -56 -5 -13 -9 -13 -30 2 -29 18 -50 10 -43 -18 4 -16 3 -17 -9 -7 -22 18
-18 49 7 49 11 0 17 4 14 10 -4 6 -20 9 -36 6 -18 -2 -27 0 -23 6 3 5 -2 9
-12 8 -27 -3 -36 -1 -31 8 10 15 81 10 118 -8z m-1428 -19 c-51 -37 -86 -106
-85 -168 2 -59 36 -130 76 -154 17 -10 25 -19 18 -19 -19 0 -89 71 -101 103
-29 75 2 172 72 232 22 19 45 35 50 35 6 0 -8 -13 -30 -29z m337 -30 c0 -25 4
-32 15 -27 8 3 15 1 15 -4 0 -12 -21 -13 -35 -2 -5 4 -10 26 -10 49 -1 24 2
37 7 30 4 -6 8 -27 8 -46z m-1245 -22 c5 -36 4 -47 -8 -52 -12 -5 -15 0 -13
21 1 15 -2 33 -8 41 -17 22 -16 40 2 33 15 -5 15 -4 3 14 -14 17 -13 18 1 4 9
-8 19 -36 23 -61z m463 48 c2 -10 -3 -17 -12 -17 -9 0 -16 2 -16 4 0 2 -3 11
-6 19 -4 11 0 15 13 13 10 -2 19 -10 21 -19z m-1041 -34 c-3 -10 -5 -4 -5 12
0 17 2 24 5 18 2 -7 2 -21 0 -30z m217 25 c-5 -8 -2 -9 12 -4 10 4 15 4 11 0
-4 -4 0 -15 9 -25 12 -13 12 -19 3 -25 -8 -4 -10 -3 -5 4 4 7 5 12 2 12 -3 0
-15 -18 -26 -41 -12 -23 -24 -38 -27 -35 -3 3 -1 12 6 19 12 16 5 47 -11 47
-6 0 -6 -6 1 -14 8 -10 9 -16 1 -21 -5 -3 -10 -19 -10 -35 0 -41 -15 -45 -17
-4 -2 19 1 34 6 34 5 0 8 8 6 18 -1 9 7 28 19 41 l21 25 -28 -18 c-16 -9 -34
-15 -40 -12 -8 3 -6 5 3 5 8 1 26 10 40 21 29 23 34 24 24 8z m1436 -2 c-7 -7
-13 -7 -20 0 -6 6 -3 10 10 10 13 0 16 -4 10 -10z m-1132 -3 c-3 -17 15 -42
26 -36 6 3 3 -3 -8 -15 -10 -12 -23 -19 -28 -16 -6 4 -6 10 1 17 13 13 15 30
2 23 -7 -5 -8 11 -2 32 2 6 11 1 9 -5z m652 -50 c0 -24 -20 -53 -36 -53 -12 0
-12 4 2 25 14 21 15 31 5 51 -6 14 -11 28 -11 32 1 13 40 -40 40 -55z m389 40
c-6 -7 -15 -10 -20 -7 -13 8 -3 21 15 21 12 0 13 -4 5 -14z m1241 1 c22 -9 40
-20 40 -26 0 -5 -10 -2 -22 6 -12 9 -30 16 -40 16 -24 0 -23 -27 1 -35 10 -3
27 -15 37 -26 l19 -21 -34 19 c-77 41 -90 66 -44 82 2 1 21 -6 43 -15z m-1483
-16 c-3 -8 -6 -5 -6 6 -1 11 2 17 5 13 3 -3 4 -12 1 -19z m1265 10 c3 -7 0
-22 -6 -34 l-10 -21 -13 24 c-7 14 -13 29 -13 34 0 14 38 11 42 -3z m134 -4
c-8 -20 23 -66 38 -57 6 4 4 -1 -4 -11 -13 -16 -12 -18 10 -14 17 2 25 -2 25
-12 1 -8 6 -14 13 -13 7 2 9 -4 5 -14 -4 -10 -2 -14 4 -10 7 5 9 -1 5 -15 -5
-21 -6 -21 -13 -2 -10 27 -29 42 -64 48 -17 2 -32 5 -35 6 -3 1 -8 2 -12 1 -9
-1 -23 49 -19 69 3 16 29 40 44 40 5 0 6 -7 3 -16z m639 2 c10 4 18 -2 24 -17
11 -31 4 -43 -16 -24 -14 14 -17 14 -34 0 -9 -9 -16 -22 -15 -28 2 -7 1 -8 -2
-4 -9 17 -54 28 -67 17 -17 -14 -29 3 -20 30 8 24 61 40 92 29 13 -5 30 -6 38
-3z m416 -8 c13 -20 11 -38 -5 -38 -9 0 -12 7 -9 19 4 16 -3 21 -39 30 l-43
11 44 -4 c24 -3 48 -10 52 -18z m-3361 -2 c0 -7 -7 -19 -15 -26 -8 -7 -15 -8
-15 -3 0 6 -18 7 -46 3 -32 -5 -55 -16 -77 -38 -28 -28 -31 -36 -31 -101 -1
-71 -13 -86 -16 -21 -4 60 11 117 36 139 13 12 24 25 24 29 0 15 43 29 93 30
33 1 47 -2 47 -12z m1855 5 c-3 -5 -1 -12 5 -16 6 -4 8 -12 4 -18 -3 -7 2 -3
10 7 9 11 16 14 16 7 0 -7 4 -10 9 -7 5 3 4 -13 -2 -37 l-12 -42 -5 33 c-3 18
-9 33 -15 32 -5 0 -10 6 -10 13 -1 6 -7 11 -15 9 -11 -3 -11 0 0 12 14 17 25
22 15 7z m-1158 -13 c-2 -7 -11 -12 -21 -10 -25 5 -21 -45 5 -53 11 -4 19 -9
16 -11 -2 -3 -16 0 -30 5 -30 12 -44 46 -27 66 15 19 63 20 57 3z m431 -1 c10
3 13 1 7 -4 -5 -4 -12 -19 -13 -33 -2 -14 -8 -26 -13 -28 -5 -2 -9 -12 -9 -23
0 -10 -7 -19 -15 -19 -8 0 -15 9 -15 20 0 11 5 20 10 20 7 0 7 6 0 19 -15 28
-13 33 11 26 18 -6 20 -4 15 17 -3 12 -3 18 0 11 3 -7 13 -9 22 -6z m27 -17
c-32 -61 -14 -130 39 -155 41 -20 66 -14 66 15 0 15 -7 20 -27 20 -27 0 -63
25 -63 43 0 6 6 3 13 -6 6 -9 30 -17 51 -19 53 -4 69 -29 37 -57 -13 -12 -32
-21 -41 -21 -22 0 -38 -20 -35 -43 2 -9 -1 -15 -6 -11 -5 3 -7 9 -4 14 5 9
-18 20 -41 20 -9 0 -14 -11 -14 -35 0 -19 -5 -35 -11 -35 -5 0 -7 5 -4 11 4 6
-2 17 -14 25 -43 31 -11 94 41 81 18 -5 19 -4 4 12 -21 23 -21 102 -1 141 9
17 18 30 21 30 2 0 -2 -13 -11 -30z m1060 20 c3 -5 1 -10 -4 -10 -6 0 -11 5
-11 10 0 6 2 10 4 10 3 0 8 -4 11 -10z m-1405 -25 c10 6 34 -22 35 -44 1 -10
-5 -18 -12 -18 -7 0 -13 6 -13 13 0 7 -9 22 -21 33 -14 13 -18 24 -13 33 7 10
9 9 12 -5 2 -9 7 -15 12 -12z m1993 -13 c3 -15 1 -32 -3 -37 -5 -6 -10 -28
-12 -49 -3 -45 -10 -52 -26 -25 -10 16 -9 19 5 19 13 0 14 3 5 12 -8 8 -8 17
-1 30 6 11 8 27 6 36 -3 12 -5 11 -6 -5 0 -12 -7 -25 -13 -30 -17 -10 -42 -14
-33 -5 4 4 12 7 18 7 7 0 13 15 15 33 2 17 8 32 13 32 6 0 7 4 4 10 -3 5 0 7
8 4 8 -3 17 -17 20 -32z m-3170 -45 c22 -7 32 -5 48 9 16 14 19 15 19 2 0 -16
-24 -41 -31 -34 -3 3 -17 7 -33 10 -38 7 -44 14 -51 56 l-6 35 13 -34 c9 -23
22 -38 41 -44z m392 63 c4 -6 1 -9 -7 -8 -7 2 -12 -3 -10 -10 1 -8 -2 -11 -8
-7 -8 5 -7 11 1 21 14 17 16 17 24 4z m3483 -8 c13 4 22 0 25 -11 6 -25 -3
-41 -29 -51 -17 -7 -22 -15 -18 -27 5 -15 4 -16 -5 -3 -6 8 -11 38 -11 65 0
33 3 45 9 36 5 -8 18 -12 29 -9z m-3190 -9 c-2 -9 -10 -18 -18 -20 -13 -4 -13
-3 0 7 12 9 8 10 -17 5 -26 -5 -33 -3 -33 9 0 12 10 16 36 16 28 0 35 -4 32
-17z m1604 -10 c-3 -16 -7 -22 -10 -15 -4 13 4 42 11 42 2 0 2 -12 -1 -27z
m-1448 6 c3 -3 -4 -5 -14 -6 -11 -1 -20 2 -20 7 0 8 25 8 34 -1z m773 -11 c-3
-8 -6 -5 -6 6 -1 11 2 17 5 13 3 -3 4 -12 1 -19z m2147 1 c-3 -5 -10 -7 -15
-3 -5 3 -7 10 -3 15 3 5 10 7 15 3 5 -3 7 -10 3 -15z m-3933 -8 c10 10 27 19
37 18 11 0 7 -4 -10 -11 -20 -7 -28 -17 -28 -34 0 -13 -4 -24 -10 -24 -12 0
-30 34 -29 57 0 15 2 15 11 -3 10 -21 10 -22 29 -3z m759 9 c11 -7 11 -10 2
-10 -7 0 -11 -4 -7 -9 3 -6 -2 -14 -10 -19 -16 -8 -19 -29 -16 -100 1 -22 5
-31 13 -26 7 4 8 3 4 -5 -6 -9 -13 -9 -29 2 -24 15 -36 57 -17 57 7 0 4 7 -5
16 -19 19 -13 58 12 87 18 19 31 21 53 7z m992 -22 c-7 -7 -10 -5 -7 8 5 29 6
30 12 16 3 -8 1 -18 -5 -24z m2146 14 c3 -11 0 -12 -17 -3 -22 12 -41 7 -41
-10 0 -5 9 -9 20 -9 23 0 55 -44 46 -65 -3 -8 -15 -15 -26 -15 -12 0 -18 5
-15 10 4 6 11 8 16 5 15 -10 10 7 -8 27 -9 10 -22 18 -29 18 -7 0 -20 7 -29
16 -12 13 -13 19 -4 31 15 17 81 14 87 -5z m-3809 -46 c-1 -17 -2 -16 -9 6 -4
14 -11 32 -15 40 -3 7 1 4 9 -6 9 -11 16 -29 15 -40z m581 29 c14 -19 14 -19
-2 -6 -10 7 -18 18 -18 24 0 6 1 8 3 6 1 -2 9 -13 17 -24z m671 16 c0 -3 2
-15 4 -26 l4 -20 -15 20 c-9 11 -20 19 -25 17 -6 -1 -8 1 -5 6 6 10 36 12 37
3z m654 -1 c-3 -5 -12 -10 -18 -10 -7 0 -6 4 3 10 19 12 23 12 15 0z m1079
-15 c9 -14 14 -25 12 -25 -8 0 -36 31 -36 41 0 15 7 10 24 -16z m-1914 0 c0
-8 -4 -15 -10 -15 -5 0 -10 7 -10 15 0 8 5 15 10 15 6 0 10 -7 10 -15z m1170
8 c-14 -3 -31 -10 -37 -15 -15 -12 -18 -82 -4 -73 5 3 12 1 16 -5 3 -5 21 -10
40 -10 27 0 43 9 74 40 38 38 67 56 41 25 -18 -22 -2 -37 19 -17 10 9 17 19
15 22 -3 6 24 10 65 10 14 0 35 -10 48 -22 24 -23 24 -39 -1 -19 -20 17 -80
26 -72 12 4 -7 1 -9 -8 -5 -17 7 -50 -50 -42 -72 4 -9 2 -12 -5 -8 -8 4 -9 -1
-4 -17 15 -49 33 -66 77 -73 24 -4 50 -11 58 -16 24 -15 -35 -12 -73 4 -38 16
-115 88 -110 103 2 5 -4 16 -13 24 -14 11 -18 11 -21 1 -3 -6 -9 -9 -15 -6 -6
4 -14 0 -19 -7 -5 -9 -9 -10 -9 -2 0 6 -11 10 -25 8 -14 -1 -25 2 -25 8 0 6
-3 7 -6 4 -7 -7 -44 35 -44 50 0 5 10 21 22 36 16 20 30 27 52 26 28 -2 28 -2
6 -6z m380 -11 c-14 -9 -35 -27 -47 -39 l-22 -21 2 28 c1 21 7 27 20 25 9 -2
17 0 17 5 0 7 13 12 50 18 3 1 -6 -7 -20 -16z m325 -68 c8 -32 27 -76 42 -98
16 -25 19 -35 9 -27 -24 20 -54 80 -65 133 -6 25 -13 53 -16 64 -6 16 -5 17 4
3 6 -9 17 -43 26 -75z m108 71 c-3 -9 -8 -14 -10 -11 -3 3 -2 9 2 15 9 16 15
13 8 -4z m-1303 -47 c0 -3 -18 3 -40 13 -23 11 -38 24 -35 29 5 9 74 -29 75
-42z m907 34 c-14 -3 -16 -7 -6 -18 6 -7 15 -12 19 -9 5 3 6 -5 2 -17 l-5 -22
-8 22 c-5 13 -16 25 -24 28 -14 6 -13 8 2 19 10 7 22 10 28 7 5 -4 2 -8 -8
-10z m425 6 c-15 -15 -16 -72 -2 -98 7 -13 7 -21 0 -25 -6 -4 -10 -3 -9 2 3
19 -2 34 -10 29 -5 -4 -7 3 -4 14 3 12 -2 29 -13 42 -15 17 -16 20 -3 16 9 -4
20 2 27 13 7 10 15 19 19 19 4 0 2 -5 -5 -12z m203 -7 c-2 -5 6 -20 20 -35
l24 -26 -24 -16 c-29 -19 -24 -34 10 -34 13 0 26 -4 29 -9 4 -5 -9 -5 -31 -1
-46 11 -60 31 -30 44 l22 9 -22 4 c-27 5 -41 46 -23 68 12 15 35 11 25 -4z
m259 4 c3 -10 -1 -18 -12 -22 -9 -4 -23 -14 -30 -22 -10 -13 -10 -11 -2 13 18
50 32 60 44 31z m-2721 -8 c3 -8 2 -19 -3 -26 -5 -9 -9 -4 -12 13 -5 27 6 36
15 13z m2889 -66 c-5 -35 -12 -56 -22 -59 -13 -5 -13 -3 -1 12 12 14 12 16 -4
10 -17 -7 -17 -6 0 24 16 27 17 33 4 48 -13 16 -12 17 6 10 16 -6 18 -5 8 5
-7 7 -13 18 -13 23 0 6 6 4 14 -4 11 -11 13 -28 8 -69z m-3175 47 c-3 -8 -6
-5 -6 6 -1 11 2 17 5 13 3 -3 4 -12 1 -19z m1030 0 c-3 -8 -6 -5 -6 6 -1 11 2
17 5 13 3 -3 4 -12 1 -19z m280 -10 c6 -7 13 -24 15 -38 2 -15 9 -24 17 -22
12 3 12 0 2 -12 -15 -18 -31 -12 -31 12 -1 19 -27 58 -38 55 -4 0 -14 3 -22 8
-13 7 -13 10 -1 18 16 10 40 1 58 -21z m33 -12 c0 -12 -5 -7 -19 24 -11 24
-11 24 3 6 9 -11 16 -24 16 -30z m260 23 c0 -5 -5 -9 -11 -9 -5 0 -7 -4 -4
-10 3 -5 -1 -10 -11 -10 -13 0 -14 3 -4 15 6 8 9 19 5 24 -3 7 0 8 9 5 9 -3
16 -10 16 -15z m1245 -21 c0 -33 3 -42 15 -40 8 2 12 0 8 -4 -4 -4 0 -13 10
-21 15 -12 14 -13 -13 -7 -43 10 -45 12 -45 45 0 26 15 69 23 69 2 0 3 -19 2
-42z m-1419 -20 c15 -28 16 -29 29 -11 13 16 14 16 9 -10 -7 -43 -34 -66 -67
-60 -36 7 -33 39 3 35 22 -2 23 -1 7 16 -18 20 -24 77 -7 67 6 -3 17 -20 26
-37z m-1598 7 c-3 -3 -9 2 -12 12 -6 14 -5 15 5 6 7 -7 10 -15 7 -18z m1182
14 c0 -5 5 -7 10 -4 6 3 10 0 10 -7 -1 -7 -17 -23 -37 -36 -21 -13 -31 -17
-24 -8 7 9 10 23 7 32 -3 9 -4 20 0 25 7 13 34 11 34 -2z m1070 -14 c0 -14 -5
-25 -11 -25 -6 0 -9 6 -6 14 3 7 0 19 -6 25 -8 8 -7 11 6 11 11 0 17 -8 17
-25z m-2512 2 c30 -11 26 -12 -45 -10 -43 1 -79 2 -81 2 -2 1 0 6 3 11 8 13
82 11 123 -3z m230 -12 c-3 -3 -9 2 -12 12 -6 14 -5 15 5 6 7 -7 10 -15 7 -18z
m372 10 c-21 -25 -4 -65 30 -72 16 -3 27 -9 25 -14 -7 -10 -34 -1 -57 19 -21
17 -23 53 -6 70 17 17 23 15 8 -3z m-324 -47 c-9 -12 -16 -17 -16 -11 0 7 5
15 11 18 6 4 8 13 5 20 -2 7 -2 16 2 20 15 15 13 -26 -2 -47z m114 37 c-7 -8
-10 -24 -7 -35 6 -23 -5 -26 -21 -7 -13 15 10 57 30 57 7 0 6 -5 -2 -15z
m2366 -14 c-1 -17 -5 -26 -9 -21 -5 4 -6 17 -2 29 9 29 12 26 11 -8z m-2897
-7 c-6 -8 -17 -14 -23 -14 -6 0 -4 5 4 10 8 5 11 10 7 10 -5 0 -5 5 -2 10 4 6
11 8 16 4 6 -4 6 -11 -2 -20z m763 4 c-7 -7 -12 -8 -12 -2 0 14 12 26 19 19 2
-3 -1 -11 -7 -17z m1849 5 c13 -16 12 -17 -3 -4 -17 13 -22 21 -14 21 2 0 10
-8 17 -17z m100 -3 c-8 -4 -11 -15 -8 -25 4 -9 3 -14 -3 -10 -6 3 -10 -1 -10
-11 0 -17 -17 -34 -55 -56 -11 -6 -3 8 18 30 20 23 37 51 37 61 0 11 6 21 13
24 18 6 24 -3 8 -13z m137 -11 c-1 -17 -8 -34 -15 -36 -7 -3 -11 -9 -8 -13 3
-5 -3 -7 -12 -6 -17 3 -19 8 -14 36 0 6 9 10 19 10 16 1 16 2 -1 15 -18 13
-17 14 5 18 13 2 24 5 26 6 1 0 1 -13 0 -30z m-1040 -4 c-3 -3 -9 2 -12 12 -6
14 -5 15 5 6 7 -7 10 -15 7 -18z m1716 10 c3 -8 1 -15 -4 -15 -6 0 -10 7 -10
15 0 8 2 15 4 15 2 0 6 -7 10 -15z m-3187 -17 c-3 -8 -6 -5 -6 6 -1 11 2 17 5
13 3 -3 4 -12 1 -19z m24 -11 c-5 -14 -14 -28 -19 -31 -5 -3 -2 10 6 29 18 39
28 41 13 2z m32 18 c-3 -9 -8 -14 -10 -11 -3 3 -2 9 2 15 9 16 15 13 8 -4z
m560 -12 c9 -12 27 -25 38 -28 18 -6 20 -15 10 -64 -1 -2 -10 4 -20 13 -11 10
-30 16 -42 14 -21 -3 -23 1 -24 44 0 50 9 55 38 21z m436 10 c-10 -11 -10 -14
-1 -9 6 4 12 5 12 2 0 -6 -55 -36 -65 -36 -3 0 -3 6 1 13 6 10 4 10 -7 0 -7
-7 -24 -12 -38 -12 -21 1 -22 2 -6 6 11 3 33 16 48 29 16 13 38 24 49 24 18 0
19 -2 7 -17z m1141 9 c0 -4 -9 -13 -19 -19 -15 -10 -20 -9 -25 2 -5 13 7 23
32 24 6 1 12 -2 12 -7z m-2280 -37 c19 -19 32 -35 29 -35 -3 0 -20 16 -39 35
-19 19 -32 35 -29 35 3 0 20 -16 39 -35z m721 18 c13 -16 12 -17 -3 -4 -10 7
-18 15 -18 17 0 8 8 3 21 -13z m194 -31 c11 -6 15 -12 9 -12 -16 0 -64 39 -64
53 0 7 8 2 18 -9 9 -12 26 -26 37 -32z m270 38 c3 -6 -1 -7 -9 -4 -18 7 -21
14 -7 14 6 0 13 -4 16 -10z m751 -9 c17 -10 31 -26 31 -35 0 -13 -7 -10 -31
11 -17 15 -35 31 -40 35 -20 16 10 8 40 -11z m604 4 c0 -8 -2 -15 -4 -15 -2 0
-6 7 -10 15 -3 8 -1 15 4 15 6 0 10 -7 10 -15z m458 -38 c8 3 10 -1 6 -12 -6
-14 -10 -13 -33 7 -30 27 -41 40 -41 52 0 4 12 -5 28 -21 15 -16 33 -28 40
-26z m710 20 c-15 -16 -29 -23 -37 -18 -21 13 -8 36 24 41 40 8 40 7 13 -23z
m-3486 -31 c-3 -4 -8 -2 -13 5 -7 12 -9 12 -9 1 0 -8 9 -16 19 -19 27 -7 34
-41 11 -53 -25 -13 -61 -13 -57 1 1 6 -4 14 -12 17 -9 3 -11 0 -6 -9 5 -9 1
-7 -11 3 -10 9 -22 17 -26 17 -5 1 -9 4 -10 8 -4 10 31 12 38 2 3 -5 10 -9 15
-9 6 0 3 7 -5 16 -21 20 -12 34 22 34 24 1 25 2 10 14 -10 7 -15 15 -12 18 8
8 51 -35 46 -46z m1327 40 c9 -11 9 -16 -1 -22 -7 -4 -10 -4 -6 1 4 4 3 14 -3
22 -6 7 -9 13 -6 13 2 0 10 -6 16 -14z m-1729 -5 c0 -5 -7 -17 -16 -26 -9 -9
-19 -34 -21 -56 -4 -32 0 -46 18 -67 l24 -27 -24 20 c-48 41 -59 106 -23 148
16 18 42 23 42 8z m1790 -34 c0 -6 7 -15 17 -22 9 -7 12 -14 6 -18 -17 -11
-41 16 -48 53 -6 33 -5 34 10 16 8 -11 15 -24 15 -29z m1639 8 c-13 -14 -40
-27 -59 -30 l-35 -5 39 13 c22 8 46 23 54 35 8 13 17 20 20 17 3 -3 -5 -17
-19 -30z m366 5 c1 -16 -2 -30 -6 -30 -4 0 -10 -12 -12 -27 -4 -28 -4 -28 -6
3 0 16 2 34 7 40 4 5 -3 -2 -16 -16 -17 -19 -21 -21 -16 -6 5 12 4 17 -3 13
-6 -4 -16 0 -22 7 -10 12 -9 14 6 12 10 -2 29 5 42 15 13 11 24 19 25 19 1 0
1 -13 1 -30z m-1732 7 c18 -8 38 -22 46 -31 12 -14 8 -13 -21 3 -28 17 -41 19
-62 11 -38 -14 -36 -55 4 -78 32 -18 53 -49 22 -33 -9 5 -29 14 -44 20 -18 7
-30 21 -37 43 -8 29 -6 36 16 56 28 26 33 26 76 9z m417 -2 c-14 -16 -46 -20
-54 -6 -3 4 5 6 18 4 13 -3 27 0 30 6 4 6 10 11 13 11 3 0 0 -7 -7 -15z m334
-1 c3 -8 2 -12 -4 -9 -6 3 -10 10 -10 16 0 14 7 11 14 -7z m251 6 c3 -5 1 -10
-4 -10 -6 0 -11 5 -11 10 0 6 2 10 4 10 3 0 8 -4 11 -10z m422 -12 c-3 -8 -6
-5 -6 6 -1 11 2 17 5 13 3 -3 4 -12 1 -19z m-2926 -25 c5 -14 4 -25 -3 -29 -6
-4 -8 -3 -5 3 9 14 -26 23 -47 11 -9 -5 -16 -18 -16 -28 0 -11 -6 -19 -12 -17
-7 1 -12 -4 -10 -10 1 -7 -4 -12 -10 -10 -7 1 -12 -3 -11 -10 2 -7 -3 -10 -11
-7 -8 3 -24 0 -36 -6 -13 -7 -20 -8 -16 -2 4 7 -11 13 -38 17 -47 7 -121 59
-110 77 4 5 17 -1 33 -15 37 -35 64 -47 105 -47 49 0 66 9 66 35 0 13 5 27 10
30 18 11 10 26 -10 20 -12 -4 -20 -2 -20 5 0 8 10 10 24 8 14 -3 30 -2 36 2
21 13 72 -4 81 -27z m1688 6 c40 -39 39 -43 -4 -18 -19 12 -42 18 -50 15 -9
-3 -15 0 -15 8 0 13 13 23 32 25 3 1 20 -13 37 -30z m469 11 c7 -11 11 -20 9
-20 -2 0 -12 9 -22 20 -10 11 -14 20 -9 20 5 0 15 -9 22 -20z m-2618 -23 c0
-5 -4 -5 -10 -2 -5 3 -10 14 -10 23 0 15 2 15 10 2 5 -8 10 -19 10 -23z m23
16 c-5 -12 -2 -15 10 -10 12 4 19 -3 27 -28 6 -19 19 -39 28 -44 16 -9 16 -10
-1 -16 -22 -9 -87 3 -87 15 0 5 -6 7 -14 4 -8 -3 -17 0 -22 7 -4 8 -3 10 4 5
20 -12 35 4 20 22 -10 12 -10 14 0 8 11 -7 14 -3 16 27 1 10 15 26 23 27 1 0
-1 -8 -4 -17z m682 -10 l-20 -15 20 4 c21 5 97 -32 103 -51 2 -6 -20 0 -50 14
-58 27 -97 32 -116 13 -17 -17 -15 -48 3 -48 8 0 15 4 15 9 0 13 63 6 68 -8 2
-7 -3 -9 -14 -4 -12 4 -15 3 -10 -5 10 -17 0 -15 -18 4 -9 8 -16 11 -16 5 0
-19 -39 -12 -50 8 -15 29 -13 36 15 51 13 7 21 18 18 24 -4 7 -2 7 8 -1 11 -9
18 -8 33 3 27 19 36 17 11 -3z m2414 -5 c0 -13 -3 -17 -6 -10 -2 6 -9 10 -14
7 -5 -4 -6 1 -3 9 9 24 24 19 23 -6z m31 1 c-7 -11 -14 -19 -16 -16 -7 7 7 37
17 37 6 0 5 -9 -1 -21z m70 11 c13 -8 12 -10 -2 -10 -20 0 -21 -2 -12 -24 4
-10 19 -16 38 -17 18 -1 23 -3 13 -6 -29 -8 -65 5 -77 27 -18 34 6 52 40 30z
m-1238 -22 c13 -13 17 -18 8 -12 -52 37 -74 13 -26 -28 l31 -27 -37 17 c-37
17 -55 43 -43 62 11 17 43 11 67 -12z m-408 -57 l-27 -26 21 29 c12 16 23 38
23 50 2 19 2 18 6 -3 3 -17 -3 -31 -23 -50z m2133 37 c-3 -8 -6 -5 -6 6 -1 11
2 17 5 13 3 -3 4 -12 1 -19z m-2026 -5 c13 -16 12 -17 -3 -4 -10 7 -18 15 -18
17 0 8 8 3 21 -13z m369 -13 c6 -11 8 -20 6 -20 -3 0 -10 9 -16 20 -6 11 -8
20 -6 20 3 0 10 -9 16 -20z m374 11 c4 -5 -3 -7 -14 -4 -23 6 -26 13 -6 13 8
0 17 -4 20 -9z m-759 -12 c4 -5 -2 -6 -11 -2 -10 3 -15 2 -12 -3 3 -5 -5 -17
-18 -27 -19 -14 -24 -15 -24 -4 0 8 7 18 16 21 8 3 13 9 10 14 -2 4 4 8 14 9
11 1 22 -2 25 -8z m996 -12 c-10 -9 -11 -8 -5 6 3 10 9 15 12 12 3 -3 0 -11
-7 -18z m179 19 c0 -2 -8 -10 -17 -17 -16 -13 -17 -12 -4 4 13 16 21 21 21 13z
m55 -16 c-3 -5 -11 -10 -16 -10 -6 0 -7 5 -4 10 3 6 11 10 16 10 6 0 7 -4 4
-10z m-2746 -14 c9 -10 8 -16 -4 -26 -8 -7 -15 -9 -15 -5 0 4 -6 3 -12 -3 -8
-5 -22 -6 -33 -1 -16 6 -17 8 -3 8 10 1 22 10 28 21 13 23 23 25 39 6z m1677
-20 c31 -31 33 -36 23 -65 -13 -37 -17 -40 -59 -43 -18 -1 -35 -8 -37 -15 -3
-7 -9 -10 -14 -7 -5 3 -5 13 1 25 8 13 7 19 0 19 -6 0 -9 4 -5 9 3 6 -4 8 -17
6 -13 -3 -24 -9 -26 -15 -2 -5 -8 -10 -13 -10 -6 0 -7 5 -3 12 4 6 -9 -1 -29
-16 -20 -16 -38 -35 -38 -42 -3 -28 -4 -32 -13 -41 -5 -5 -6 -2 -1 6 5 9 4 12
-2 8 -5 -3 -9 -20 -8 -36 1 -18 -2 -28 -8 -24 -6 4 -8 -2 -5 -15 4 -12 2 -20
-3 -16 -5 3 -9 -2 -9 -10 0 -9 5 -16 12 -16 9 0 9 -3 0 -12 -7 -7 -12 -31 -12
-55 0 -36 3 -42 18 -37 14 5 14 4 2 -4 -8 -6 -18 -8 -22 -6 -4 3 -8 -10 -8
-28 -1 -54 -17 -11 -22 56 -11 158 55 303 152 330 14 4 33 10 43 13 11 3 28
-7 46 -26 25 -27 30 -29 47 -17 15 12 16 18 7 39 -16 34 -73 50 -126 36 -46
-12 -119 -77 -137 -120 -7 -16 -15 -28 -17 -25 -9 9 37 82 74 118 46 44 74 57
132 57 36 1 48 -4 77 -33z m-986 14 c0 -5 -2 -10 -4 -10 -3 0 -8 5 -11 10 -3
6 -1 10 4 10 6 0 11 -4 11 -10z m-853 -25 c-8 -18 -41 -20 -56 -2 -8 11 -5 13
19 9 20 -3 30 0 30 9 0 7 3 10 6 6 4 -3 4 -13 1 -22z m2180 -27 c-3 -7 -5 -2
-5 12 0 14 2 19 5 13 2 -7 2 -19 0 -25z m-2141 -35 c4 -14 1 -30 -5 -36 -11
-11 -16 2 -12 27 1 4 -3 14 -8 20 -8 9 -6 13 4 13 9 0 18 -11 21 -24z m2129
-31 c-2 -15 -4 -38 -4 -52 -1 -14 -9 -30 -19 -36 -16 -11 -18 -8 -16 30 2 63
3 66 19 66 9 0 12 6 8 17 -4 10 -2 14 5 9 6 -3 9 -19 7 -34z m-430 18 c3 -5 1
-10 -4 -10 -6 0 -11 5 -11 10 0 6 2 10 4 10 3 0 8 -4 11 -10z m-215 -35 c0
-19 -2 -35 -4 -35 -2 0 -6 16 -8 35 -2 19 0 35 4 35 4 0 8 -16 8 -35z m371 -4
c-6 -11 -21 -26 -34 -32 -18 -10 -17 -7 8 23 33 38 43 42 26 9z m87 -4 c-1 -2
4 -12 12 -23 8 -10 10 -16 6 -12 -5 4 -15 3 -22 -3 -10 -8 -12 -6 -9 11 3 17
0 21 -13 16 -14 -5 -13 -3 2 9 17 13 34 15 24 2z m212 -32 c0 -8 -4 -15 -10
-15 -5 0 -10 7 -10 15 0 8 5 15 10 15 6 0 10 -7 10 -15z m-636 -10 c-4 -8 -8
-15 -10 -15 -2 0 -4 7 -4 15 0 8 4 15 10 15 5 0 7 -7 4 -15z m150 -9 c-3 -9
-12 -16 -20 -16 -7 0 -20 -10 -28 -22 -9 -12 -16 -18 -16 -13 0 10 62 76 67
71 2 -2 1 -11 -3 -20z m186 -31 c17 -18 21 -31 17 -54 -7 -34 7 -49 28 -31 21
17 18 53 -6 84 -15 19 -16 24 -5 20 8 -3 18 -14 21 -25 4 -11 10 -17 14 -14 5
2 6 -8 3 -23 -11 -61 -72 -88 -72 -32 0 43 -39 80 -82 79 l-33 -2 35 -7 c37
-8 38 -10 5 -14 -57 -7 -87 -35 -105 -95 -7 -21 -8 -22 -9 -5 -1 11 -6 25 -12
31 -9 9 -6 20 9 45 42 68 147 91 192 43z m-353 -7 c-3 -8 -6 -5 -6 6 -1 11 2
17 5 13 3 -3 4 -12 1 -19z m-18 -40 c-5 -10 -11 -18 -12 -18 -2 0 -3 8 -4 18
-1 10 5 19 12 19 10 0 11 -5 4 -19z m141 -3 c0 -8 -4 -15 -10 -15 -5 0 -7 7
-4 15 4 8 8 15 10 15 2 0 4 -7 4 -15z m220 -7 c0 -23 -32 -36 -62 -24 -30 11
-58 2 -66 -24 -3 -7 0 -10 5 -7 6 4 19 -3 29 -16 l19 -22 -24 20 -24 20 8 -20
c4 -11 10 -33 13 -49 3 -22 2 -27 -8 -21 -9 6 -11 4 -6 -4 5 -7 14 -10 22 -7
9 3 11 0 7 -11 -4 -11 -2 -14 5 -9 7 4 12 2 12 -4 0 -6 5 -8 13 -4 8 5 8 2 -2
-9 -11 -15 -11 -17 2 -17 8 0 17 -5 19 -11 2 -5 10 -11 18 -13 8 -2 26 -7 40
-13 14 -6 32 -13 40 -16 11 -4 9 -6 -5 -6 -11 0 -39 8 -62 18 -23 11 -45 16
-49 13 -4 -4 -4 -1 0 6 4 6 2 13 -3 13 -6 1 -16 2 -22 3 -19 2 -50 50 -54 85
-3 25 -1 32 10 28 10 -5 10 1 -3 23 -16 27 -15 30 3 50 16 18 26 21 62 15 39
-6 43 -4 43 15 0 12 5 18 10 15 6 -3 10 -11 10 -17z m252 -10 c-10 -10 -44 0
-37 12 3 5 14 6 26 3 12 -3 17 -9 11 -15z m-6 -48 c0 -10 -2 -17 -4 -15 -2 2
-18 -13 -37 -33 -31 -35 -33 -35 -31 -12 0 14 8 31 16 38 8 8 10 11 3 8 -6 -4
-14 -2 -17 3 -4 5 2 8 11 7 10 -2 27 3 38 10 11 8 20 14 20 14 0 0 1 -9 1 -20z
m-449 -42 c-2 -13 -4 -5 -4 17 -1 22 1 32 4 23 2 -10 2 -28 0 -40z m-33 -7 c6
-47 18 -67 47 -76 19 -6 27 -25 11 -25 -32 0 -72 68 -72 122 0 43 8 32 14 -21z
m396 25 c0 -2 -8 -10 -17 -17 -16 -13 -17 -12 -4 4 13 16 21 21 21 13z m-526
-48 c-4 -6 -10 -5 -15 3 -14 22 -10 33 6 19 8 -7 12 -17 9 -22z m399 -48 c16
-1 77 -29 64 -30 -33 0 -97 39 -97 61 0 11 -4 17 -10 14 -6 -4 -7 1 -3 11 5
13 10 9 25 -20 10 -20 19 -36 21 -36z m234 35 c0 -8 -4 -12 -9 -9 -5 3 -6 10
-3 15 9 13 12 11 12 -6z m-635 -22 c24 -22 23 -36 -2 -21 -17 11 -22 10 -30
-2 -11 -17 -13 -1 -4 24 8 20 13 20 36 -1z m95 -25 c-3 -8 -6 -5 -6 6 -1 11 2
17 5 13 3 -3 4 -12 1 -19z m-13 -25 c3 -7 2 -13 -3 -13 -5 0 -14 6 -20 13 -8
10 -7 14 4 14 8 0 16 -6 19 -14z m-40 -87 c1 -25 -1 -46 -6 -46 -4 0 -8 23 -8
52 0 62 11 58 14 -6z m156 50 c0 -5 -69 -46 -76 -46 -14 0 12 24 40 36 36 15
36 15 36 10z m-113 -38 c-3 -7 -5 -2 -5 12 0 14 2 19 5 13 2 -7 2 -19 0 -25z
m465 13 c-12 -7 -62 -4 -62 5 0 2 17 4 38 4 23 0 32 -3 24 -9z m-274 -21 c2
-6 9 -7 14 -4 6 4 8 3 5 -3 -3 -5 -32 -8 -63 -7 -31 2 -54 0 -50 -3 3 -3 -2
-12 -12 -20 -13 -11 -11 -11 14 1 18 9 36 11 44 6 7 -4 19 -6 27 -3 7 3 13 1
13 -5 0 -5 -16 -10 -35 -10 -47 0 -96 -33 -125 -84 -34 -59 -36 -192 -3 -253
26 -48 60 -78 79 -71 23 9 16 31 -17 55 -35 26 -33 39 3 19 30 -17 38 -28 38
-55 0 -30 -44 -42 -79 -22 -30 17 -73 96 -68 126 2 12 0 20 -4 17 -15 -9 -10
119 6 172 17 58 75 131 119 149 33 14 89 11 94 -5z m-196 -52 c-16 -24 -30
-47 -30 -52 0 -5 -6 -12 -14 -17 -8 -5 -13 -26 -13 -53 0 -24 -3 -39 -7 -33
-4 7 -8 -6 -8 -28 0 -23 5 -46 10 -51 7 -7 7 -18 0 -35 -10 -24 -10 -24 -7 4
3 15 0 27 -4 27 -15 0 -9 93 9 147 17 46 82 146 90 138 2 -2 -9 -23 -26 -47z
m493 9 c12 -6 15 -12 8 -14 -7 -3 -21 0 -32 6 -34 18 -96 13 -127 -11 l-29
-22 24 27 c13 14 33 28 45 30 28 6 85 -2 111 -16z m-262 -31 c11 -28 5 -28
-16 0 -12 17 -14 24 -5 22 7 -2 16 -12 21 -22z m-293 -11 c-13 -16 -60 -21
-60 -7 0 17 14 22 28 9 12 -10 17 -9 26 5 5 9 12 15 15 13 2 -3 -2 -11 -9 -20z
m500 8 c0 -3 -13 -3 -30 -1 -30 5 -41 -6 -17 -15 8 -4 6 -6 -4 -6 -20 -1 -46
-30 -51 -56 -4 -27 -23 -21 -24 8 0 27 19 58 47 72 19 11 79 9 79 -2z m99 3
c9 -11 9 -16 -1 -22 -7 -4 -10 -4 -6 1 4 4 3 14 -3 22 -6 7 -9 13 -6 13 2 0
10 -6 16 -14z m-55 -37 c37 -29 56 -71 56 -124 0 -129 -112 -236 -199 -190
-30 15 -44 53 -21 57 31 4 35 1 35 -27 0 -29 2 -30 39 -28 72 5 135 92 136
186 0 59 -21 102 -63 127 -18 11 -27 20 -21 20 6 0 23 -9 38 -21z m81 2 c3 -5
2 -12 -3 -15 -5 -3 -9 1 -9 9 0 17 3 19 12 6z m-305 -5 c0 -3 -4 -8 -10 -11
-5 -3 -10 -1 -10 4 0 6 5 11 10 11 6 0 10 -2 10 -4z m-140 -62 c0 -8 4 -13 9
-9 21 12 20 -15 -1 -29 -13 -9 -17 -16 -9 -16 11 0 10 -4 -2 -18 -10 -10 -14
-22 -10 -26 4 -4 1 -11 -7 -16 -12 -7 -12 -11 0 -25 11 -14 11 -16 -1 -13 -24
5 -47 82 -27 94 4 3 8 10 8 15 0 6 -5 7 -12 3 -6 -4 -3 4 8 18 10 14 23 23 28
20 5 -3 6 2 3 12 -4 10 -3 15 3 11 6 -3 10 -13 10 -21z m463 6 c-3 -12 -8 -19
-11 -16 -5 6 5 36 12 36 2 0 2 -9 -1 -20z m-146 -5 c3 -9 3 -19 -1 -22 -8 -9
-37 18 -30 28 8 14 24 11 31 -6z m-400 -17 c-3 -8 -6 -5 -6 6 -1 11 2 17 5 13
3 -3 4 -12 1 -19z m263 -19 c0 -11 -16 -11 -50 -2 l-25 7 25 6 c28 7 50 2 50
-11z m295 -25 c-1 -25 2 -47 7 -50 4 -3 9 5 9 18 1 18 2 19 6 5 3 -10 -1 -24
-7 -32 -7 -8 -9 -24 -5 -36 5 -14 4 -19 -4 -15 -6 4 -11 5 -11 2 0 -2 -3 -13
-6 -23 -5 -15 -4 -15 5 -3 8 12 10 9 7 -13 -1 -15 -6 -30 -11 -35 -4 -4 -5 -2
-1 5 8 15 -10 27 -19 13 -4 -6 1 -20 11 -31 9 -10 14 -19 11 -19 -31 0 -50
-19 -37 -35 7 -9 7 -15 1 -19 -5 -4 -8 -15 -6 -26 3 -14 -1 -17 -13 -13 -10 4
-12 8 -4 11 8 2 4 11 -10 24 -13 11 -18 17 -12 14 7 -3 15 2 19 12 9 25 8 27
-20 29 -16 1 -23 -2 -19 -9 4 -6 3 -8 -4 -5 -13 9 -44 -2 -37 -13 2 -4 -7 -5
-22 -2 -25 5 -25 5 13 24 79 38 127 105 139 193 11 87 23 103 20 29z m-395 13
c0 -2 -10 -12 -22 -23 l-23 -19 19 23 c18 21 26 27 26 19z m92 -41 c10 -7 15
-16 11 -19 -3 -4 0 -13 6 -21 7 -8 8 -17 3 -20 -5 -3 -16 4 -25 15 -18 20 -47
26 -47 9 0 -5 -6 -9 -12 -7 -7 1 -12 -4 -10 -10 1 -7 -3 -13 -9 -13 -6 0 -9
-6 -6 -12 2 -7 0 -21 -5 -30 -5 -12 -5 -18 1 -18 6 0 8 -7 5 -15 -7 -18 42
-80 49 -62 3 7 6 5 6 -5 1 -27 -14 -22 -48 17 -27 31 -31 43 -31 91 0 48 4 59
29 85 32 31 56 36 83 15z m163 -16 c1 -12 -5 -20 -14 -20 -14 0 -14 -2 -1 -10
8 -5 12 -12 8 -15 -3 -4 -18 1 -33 11 l-27 17 29 13 28 12 -30 2 -30 2 30 7
c35 8 38 7 40 -19z m-308 -67 c-3 -10 -5 -4 -5 12 0 17 2 24 5 18 2 -7 2 -21
0 -30z m267 11 c24 -23 19 -27 -9 -8 -14 9 -25 18 -25 20 0 10 20 3 34 -12z
m-455 -59 c0 -5 -4 -3 -9 5 -5 8 -9 22 -9 30 0 16 17 -16 18 -35z m451 31 c0
-2 -8 -10 -17 -17 -16 -13 -17 -12 -4 4 13 16 21 21 21 13z m-413 -91 c0 -20
-4 -19 -17 5 -8 15 -8 18 3 14 8 -3 14 -11 14 -19z m307 3 c-3 -5 -12 -4 -20
3 -19 16 -18 18 6 12 11 -3 17 -9 14 -15z m41 -18 c13 -6 15 -9 5 -9 -8 0 -22
4 -30 9 -18 12 -2 12 25 0z m-330 -38 c1 -14 -4 -17 -22 -14 -13 2 -25 8 -28
12 -3 5 4 6 15 3 14 -4 20 0 20 13 0 22 13 10 15 -14z m-107 -8 c1 -14 -3 -34
-8 -45 -8 -14 -7 -19 2 -19 14 -1 -20 -23 -39 -26 -17 -3 -17 32 0 39 7 2 13
17 15 33 2 22 10 36 27 44 0 0 2 -12 3 -26z m303 9 c13 -16 12 -17 -3 -4 -10
7 -18 15 -18 17 0 8 8 3 21 -13z m289 -8 c11 -13 10 -14 -4 -9 -9 3 -16 10
-16 15 0 13 6 11 20 -6z m-368 -11 c-2 -5 -10 -8 -18 -6 -8 2 -14 -3 -14 -9 0
-7 -2 -10 -5 -7 -3 3 -3 12 0 21 7 16 42 17 37 1z m203 -29 c11 -5 33 -22 48
-39 24 -26 30 -29 47 -18 21 13 25 6 12 -16 -11 -16 -37 -7 -76 25 -20 17 -37
22 -55 19 -14 -2 -43 -7 -64 -11 -21 -3 -35 -10 -32 -15 4 -6 -2 -7 -12 -3
-10 3 -15 3 -12 -1 3 -3 -16 -28 -43 -56 -31 -30 -47 -54 -42 -61 4 -7 3 -9
-4 -5 -6 4 -11 -1 -11 -11 0 -10 -7 -43 -16 -73 -17 -60 -19 -173 -2 -163 6 3
7 1 3 -5 -9 -15 40 -121 72 -156 l27 -29 -32 22 c-41 28 -91 129 -99 202 -8
69 10 177 38 233 62 124 171 193 253 161z m185 5 c8 -5 11 -10 5 -10 -5 0 -17
5 -25 10 -8 5 -10 10 -5 10 6 0 17 -5 25 -10z m-431 -14 c7 -8 8 -17 3 -20 -6
-3 -12 3 -15 14 -6 24 -4 25 12 6z m41 -5 c-5 -9 -16 -25 -25 -36 -16 -19 -16
-18 -1 8 9 15 15 31 12 36 -3 4 1 8 9 8 10 0 11 -5 5 -16z m310 -1 c6 -11 7
-20 3 -20 -5 0 -14 9 -21 20 -7 11 -8 20 -2 20 5 0 14 -9 20 -20z m-495 -10
c-3 -5 -10 -10 -16 -10 -5 0 -9 5 -9 10 0 6 7 10 16 10 8 0 12 -4 9 -10z m140
-49 c3 -5 0 -13 -6 -17 -7 -4 -9 -3 -5 4 3 5 0 13 -6 15 -9 4 -10 6 -1 6 6 1
14 -3 18 -8z m-125 -49 c5 -13 10 -28 10 -35 -1 -7 -7 3 -15 21 -9 21 -21 32
-35 32 -11 0 -20 -4 -20 -10 0 -5 -4 -10 -9 -10 -6 0 -9 9 -8 19 1 12 6 17 16
13 9 -3 12 -1 8 5 -5 8 1 7 18 0 13 -7 29 -22 35 -35z m64 36 c4 3 4 -2 0 -12
-5 -14 -4 -17 5 -11 10 6 11 3 2 -13 -17 -32 -28 -34 -35 -8 -3 13 -9 32 -12
41 -6 15 -4 16 13 7 11 -6 23 -8 27 -4z m367 -98 c9 -1 8 -4 -5 -12 -16 -9
-23 -7 -38 12 -26 32 -22 48 5 22 13 -12 30 -22 38 -22z m-356 0 c-4 -12 -9
-19 -12 -17 -3 3 -2 15 2 27 4 12 9 19 12 17 3 -3 2 -15 -2 -27z m286 -18
c-13 -2 -27 0 -32 5 -6 6 3 7 23 4 28 -4 29 -6 9 -9z m-31 -13 c12 -8 10 -9
-9 -4 -16 5 -21 4 -17 -4 9 -13 46 -15 46 -1 0 5 13 8 30 7 16 -1 30 -7 30
-14 0 -16 -33 -25 -66 -17 -19 5 -25 4 -20 -4 5 -8 2 -10 -8 -6 -9 3 -14 10
-11 14 3 5 1 11 -5 15 -11 7 -4 25 8 25 4 0 14 -5 22 -11z m155 -20 c-4 -5 -2
-9 3 -9 5 0 12 -9 15 -19 3 -14 1 -18 -9 -14 -8 3 -14 10 -15 17 0 6 -2 19 -4
29 -2 9 1 15 6 11 5 -3 7 -10 4 -15z m-31 -3 c-3 -8 0 -25 7 -38 12 -22 11
-23 -8 -5 -11 9 -25 17 -31 17 -30 0 -5 28 35 39 1 1 0 -5 -3 -13z m-169 -18
c-3 -12 1 -28 7 -35 6 -8 7 -13 2 -12 -5 1 -11 0 -14 -1 -19 -7 -39 -7 -34 1
3 5 9 7 14 4 5 -3 11 -1 15 5 3 5 2 10 -4 10 -10 0 -9 19 2 38 12 18 16 15 12
-10z m-80 2 c3 -6 -1 -7 -9 -4 -18 7 -21 14 -7 14 6 0 13 -4 16 -10z m-15 -30
c6 -11 8 -20 6 -20 -3 0 -10 9 -16 20 -6 11 -8 20 -6 20 3 0 10 -9 16 -20z
m-195 0 c24 20 17 -5 -7 -26 -12 -10 -18 -13 -13 -5 6 10 4 13 -6 9 -10 -4
-15 1 -15 13 0 13 3 15 13 7 9 -7 17 -7 28 2z m395 -20 c0 -5 -2 -10 -4 -10
-3 0 -8 5 -11 10 -3 6 -1 10 4 10 6 0 11 -4 11 -10z m-210 -64 c0 -32 -6 -60
-16 -72 -14 -18 -15 -18 -4 4 7 14 10 47 7 78 -3 30 -1 51 4 48 5 -3 9 -29 9
-58z m324 3 c-13 -15 -12 -17 8 -22 12 -4 29 -1 37 6 9 6 8 2 -3 -11 -11 -12
-16 -22 -11 -22 4 0 2 -6 -4 -13 -6 -8 -8 -16 -5 -19 3 -3 0 -9 -7 -14 -8 -5
-10 -3 -4 6 6 10 4 12 -9 7 -11 -4 -15 -3 -10 4 4 8 -1 9 -16 4 -15 -5 -20 -4
-16 4 4 6 1 11 -6 11 -9 0 -9 3 2 10 8 5 15 13 16 17 0 4 4 16 9 26 4 11 3 29
-4 44 l-12 26 25 -24 c22 -21 23 -26 10 -40z m-90 39 c-3 -4 2 -8 12 -8 13 0
11 -5 -9 -20 -28 -22 -27 -43 2 -68 14 -12 14 -13 0 -9 -9 3 -22 0 -29 -6 -10
-9 -11 -9 -6 3 4 8 0 6 -8 -4 -9 -11 -16 -26 -16 -33 0 -19 28 -27 45 -13 16
13 35 6 35 -14 0 -20 -45 -25 -80 -8 -26 12 -30 19 -27 46 2 18 7 38 12 46 8
13 6 13 -8 1 -15 -12 -17 -11 -14 5 1 11 6 24 10 30 4 7 1 11 -6 10 -6 0 -14
3 -17 9 -3 5 4 10 15 10 12 0 20 6 19 15 -1 11 10 15 37 15 21 1 35 -3 33 -7z
m226 -18 c0 -5 -7 -10 -16 -10 -8 0 -12 5 -9 10 3 6 10 10 16 10 5 0 9 -4 9
-10z m-324 -57 c-10 -11 -19 -7 -22 10 -2 15 0 16 12 6 8 -6 12 -14 10 -16z
m260 2 c-1 -8 -7 -20 -13 -26 -13 -13 -13 7 0 29 11 16 16 15 13 -3z m-609
-20 c0 -8 -4 -12 -9 -9 -4 3 -8 9 -8 15 0 5 4 9 8 9 5 0 9 -7 9 -15z m40 -22
c-3 -10 -5 -4 -5 12 0 17 2 24 5 18 2 -7 2 -21 0 -30z m183 -13 c-12 -16 -24
-30 -26 -30 -3 0 4 14 16 30 12 17 24 30 26 30 3 0 -4 -13 -16 -30z m120 -14
c0 -12 -5 -7 -19 24 -11 24 -11 24 3 6 9 -11 16 -24 16 -30z m20 23 c0 -6 -4
-7 -10 -4 -5 3 -10 11 -10 16 0 6 5 7 10 4 6 -3 10 -11 10 -16z m-303 -21 c-3
-8 -6 -5 -6 6 -1 11 2 17 5 13 3 -3 4 -12 1 -19z m69 -30 c9 -29 34 -70 57
-95 22 -24 37 -44 33 -44 -23 -5 -32 -4 -43 3 -7 6 -14 4 -19 -3 -4 -8 -3 -9
4 -5 8 5 10 1 6 -11 -5 -15 -4 -16 5 -3 6 9 11 10 11 3 0 -14 23 -11 43 5 11
10 17 9 26 -2 9 -11 9 -16 -1 -22 -19 -12 -37 -14 -43 -4 -3 5 -14 7 -25 5
-24 -5 -43 24 -29 46 14 22 10 35 -5 14 -13 -18 -14 -18 -25 6 -12 23 -12 23
5 4 l17 -20 -8 20 c-4 11 -7 28 -7 38 0 9 -3 15 -7 12 -15 -9 -28 19 -25 55 4
67 7 66 30 -2z m461 39 c0 -8 -6 -14 -14 -14 -9 0 -10 4 -2 14 6 7 12 13 14
13 1 0 2 -6 2 -13z m-549 -97 c0 -32 -1 -33 -8 -10 -4 14 -8 41 -8 60 0 32 1
33 8 10 4 -14 8 -41 8 -60z m20 24 c-3 -14 -5 -12 -10 9 -3 19 -2 25 4 19 6
-6 8 -18 6 -28z m236 -25 c-3 -5 22 -7 56 -5 53 3 60 1 60 -15 0 -26 -15 -31
-60 -19 -44 12 -113 66 -104 82 3 5 16 0 30 -13 13 -12 21 -26 18 -30z m-58 2
c-3 -4 3 -16 14 -26 11 -10 20 -15 20 -10 0 4 7 2 15 -5 12 -10 13 -15 4 -20
-12 -8 -70 50 -63 62 3 5 7 8 10 8 3 0 3 -4 0 -9z m247 -3 c9 2 17 -2 17 -8 0
-6 6 -8 13 -4 8 5 9 4 2 -4 -6 -7 -26 -14 -45 -18 -26 -4 -31 -3 -20 5 13 9
13 11 -2 11 -10 0 -18 4 -18 8 0 15 12 22 24 14 6 -3 19 -5 29 -4z m90 -50 c9
-10 12 -18 6 -18 -6 0 -7 -5 -2 -12 4 -7 8 -19 9 -26 2 -10 -1 -10 -12 -1 -7
6 -11 15 -9 20 3 4 -7 15 -22 24 -27 15 -27 16 -3 10 l25 -6 -25 15 c-22 13
-22 15 -5 13 11 -1 28 -9 38 -19z m-489 -68 c12 -11 31 -27 44 -37 26 -21 49
-85 27 -77 -7 3 -16 1 -20 -5 -3 -6 -10 -11 -16 -11 -5 0 -4 9 3 20 11 17 8
24 -19 52 -38 40 -63 89 -62 120 1 19 3 17 12 -10 5 -18 20 -42 31 -52z m416
70 c-8 -5 -19 -10 -25 -10 -5 0 -3 5 5 10 8 5 20 10 25 10 6 0 3 -5 -5 -10z
m-10 -49 c30 -12 33 -11 -61 -14 -85 -2 -135 -27 -165 -82 -21 -40 -16 -90 10
-90 14 0 22 12 32 46 13 44 51 88 87 102 27 10 113 -12 133 -34 9 -10 14 -19
10 -19 -4 0 2 -12 13 -26 21 -27 30 -101 11 -89 -6 3 -8 21 -4 38 4 26 3 30
-7 20 -15 -15 -43 -17 -34 -3 4 6 10 8 15 5 18 -11 18 13 0 30 -11 10 -17 22
-13 28 4 6 0 8 -10 4 -9 -3 -18 0 -21 9 -3 8 -13 13 -23 13 -17 -1 -17 -2 0
-6 15 -4 21 -15 19 -34 -1 -4 6 -6 16 -5 18 1 24 -22 9 -41 -12 -17 0 -32 23
-28 17 3 18 1 7 -22 -6 -15 -13 -20 -15 -13 -3 8 -10 4 -19 -11 -13 -22 -12
-11 3 26 4 10 2 15 -7 13 -7 -2 -13 3 -14 10 0 7 -7 17 -15 23 -12 9 -12 10 3
5 11 -3 16 -2 12 4 -3 6 -24 10 -46 10 -28 0 -38 -4 -33 -12 4 -7 3 -8 -4 -4
-12 7 -57 -12 -48 -21 3 -3 -2 -12 -10 -20 -8 -8 -12 -19 -9 -24 4 -5 -2 -6
-12 -2 -15 6 -16 4 -6 -8 9 -11 7 -14 -12 -14 -13 0 -21 4 -17 9 3 5 -2 7 -11
3 -9 -3 -18 0 -21 9 -3 9 -11 12 -16 9 -6 -4 -10 -3 -9 2 3 18 -1 34 -8 30 -5
-3 -8 5 -8 18 0 13 4 21 9 17 5 -3 7 4 4 16 -4 14 2 28 18 43 13 12 24 28 24
36 0 7 3 12 8 12 20 -3 23 3 11 19 -12 15 -12 16 1 5 12 -8 23 -7 50 7 37 19
103 20 150 1z m-276 -49 c3 -5 -1 -9 -9 -9 -8 0 -12 4 -9 9 3 4 7 8 9 8 2 0 6
-4 9 -8z m-174 -119 c11 3 18 1 14 -4 -3 -5 -13 -9 -23 -9 -24 0 -41 -20 -41
-47 0 -15 6 -23 18 -23 16 -1 16 -1 0 -14 -10 -7 -15 -15 -12 -18 3 -4 1 -9
-5 -12 -16 -11 -38 36 -36 76 3 42 12 61 26 53 5 -4 9 -1 9 6 0 8 4 8 15 -1 8
-7 24 -10 35 -7z m37 -10 c-4 -3 1 -12 11 -20 15 -13 15 -13 -6 -3 -19 9 -23
30 -5 30 4 0 3 -3 0 -7z m392 -52 c0 -12 -2 -11 -8 3 -7 18 -8 18 -14 2 -4
-10 -8 -57 -8 -104 -1 -48 -3 -78 -6 -67 -2 11 -7 27 -10 35 -3 8 -5 23 -4 33
2 16 0 16 -18 5 -16 -10 -18 -15 -8 -28 11 -13 10 -13 -8 0 -11 8 -21 15 -23
16 -2 1 8 13 22 27 14 14 27 23 30 20 2 -3 9 12 15 33 6 21 8 40 6 42 -5 5
-11 -9 -18 -43 -4 -15 -5 -14 -6 6 0 15 6 32 14 39 8 7 12 17 8 24 -3 6 3 2
15 -8 12 -11 22 -26 21 -35z m78 -3 c-3 -8 -6 -5 -6 6 -1 11 2 17 5 13 3 -3 4
-12 1 -19z m-484 -18 c9 -18 12 -32 6 -36 -5 -3 -8 -2 -7 3 2 4 0 8 -3 8 -13
0 -48 38 -43 46 11 18 33 8 47 -21z m67 15 c-6 -8 -8 -20 -4 -27 5 -10 4 -10
-6 -1 -11 10 -11 15 0 28 7 8 15 15 17 15 3 0 0 -7 -7 -15z m6 -110 c-15 -36
-13 -61 4 -50 5 3 11 1 15 -4 3 -6 -5 -8 -18 -5 -16 2 -24 -1 -24 -10 0 -8 8
-13 19 -11 10 2 16 0 13 -6 -4 -5 -10 -7 -15 -4 -5 3 -16 -2 -25 -12 -13 -13
-16 -30 -13 -76 4 -59 4 -59 -13 -38 -34 42 -34 86 -2 156 17 36 33 62 37 58
3 -4 5 7 2 23 -2 16 -1 21 1 11 7 -28 23 -9 25 31 1 36 1 36 5 6 2 -18 -3 -49
-11 -69z m375 74 c13 -11 19 -18 13 -15 -7 3 -17 -1 -24 -9 -7 -8 -9 -15 -6
-15 4 0 4 -5 1 -11 -12 -18 -47 28 -40 51 8 26 27 25 56 -1z m-250 -93 c4 -64
3 -83 -5 -78 -5 3 -6 -3 -2 -14 4 -10 4 -16 1 -12 -4 4 -19 -6 -33 -21 -15
-15 -19 -17 -9 -6 9 12 22 37 27 56 11 37 4 109 -11 109 -5 0 -9 6 -9 13 1 14
40 -30 41 -47z m196 -18 c-3 -7 -5 -2 -5 12 0 14 2 19 5 13 2 -7 2 -19 0 -25z
m-23 -68 c4 -8 0 -6 -8 4 -12 15 -16 16 -17 5 0 -8 -7 0 -14 16 -10 20 -14 24
-15 12 0 -10 5 -28 11 -39 9 -16 8 -19 -2 -13 -9 6 -11 3 -6 -8 4 -11 1 -15
-12 -12 -12 2 -17 -3 -16 -16 1 -10 5 -22 9 -26 4 -5 6 -2 4 6 -1 7 5 15 16
16 16 3 16 1 -4 -20 -12 -13 -28 -21 -36 -18 -8 3 -14 0 -14 -6 0 -6 -5 -11
-10 -11 -11 0 -45 36 -45 47 0 6 24 13 53 15 6 1 12 4 12 8 0 3 -6 12 -12 20
-10 11 -9 11 6 0 18 -14 19 -13 13 3 -4 10 -3 16 2 13 5 -4 7 12 4 36 -4 29
-3 39 5 34 7 -4 12 -1 12 6 0 9 3 9 10 -2 9 -13 10 -13 11 0 1 8 5 -1 9 -20
l7 -35 3 40 3 40 6 -40 c4 -22 10 -47 15 -55z m-390 58 c-8 -26 -34 -67 -34
-53 0 5 5 24 12 42 13 37 33 46 22 11z m294 -15 c-1 -37 -1 -37 -5 -5 -2 17
-8 32 -13 32 -5 0 -7 -17 -4 -37 4 -37 4 -37 -6 -8 -12 35 -7 55 15 55 11 0
15 -10 13 -37z m149 5 c-3 -7 -5 -2 -5 12 0 14 2 19 5 13 2 -7 2 -19 0 -25z
m30 -51 c-14 -24 -44 -60 -66 -80 -21 -19 -36 -39 -33 -43 4 -4 2 -4 -5 -1
-16 10 -44 -3 -36 -17 3 -6 3 -8 -2 -4 -4 4 -14 3 -21 -3 -8 -6 -29 -11 -49
-11 -39 0 -55 -15 -34 -30 12 -8 11 -9 -1 -5 -8 2 -21 14 -27 28 -11 21 -10
26 8 41 13 11 30 15 48 12 69 -14 190 60 221 137 7 16 15 27 18 25 2 -3 -7
-25 -21 -49z m-218 -2 c0 -5 -4 -3 -9 5 -5 8 -9 22 -9 30 0 16 17 -16 18 -35z
m155 19 c3 -8 2 -12 -4 -9 -6 3 -10 10 -10 16 0 14 7 11 14 -7z m-319 -24 c-3
-5 -11 -10 -16 -10 -6 0 -7 5 -4 10 3 6 11 10 16 10 6 0 7 -4 4 -10z m310 -12
c5 4 5 1 1 -6 -6 -10 -11 -10 -22 -1 -8 6 -14 14 -14 16 0 3 6 0 13 -6 8 -6
18 -7 22 -3z m-205 -57 c0 -5 -7 -11 -15 -15 -15 -5 -20 5 -8 17 9 10 23 9 23
-2z m-190 -16 c0 -9 -6 -12 -15 -9 -8 4 -12 10 -9 15 8 14 24 10 24 -6z m105
-15 c-3 -5 -12 -10 -18 -10 -7 0 -6 4 3 10 19 12 23 12 15 0z m-148 -22 c-3
-8 -6 -5 -6 6 -1 11 2 17 5 13 3 -3 4 -12 1 -19z m157 -3 c-18 -8 -41 -26 -53
-41 -12 -15 -21 -22 -21 -16 0 16 69 72 88 71 10 0 4 -6 -14 -14z m-120 -54
c8 -11 8 -13 -1 -7 -19 11 -17 -39 2 -54 18 -15 20 -53 3 -48 -6 2 -20 15 -30
29 -17 23 -18 30 -6 73 7 26 14 41 17 34 2 -7 9 -19 15 -27z m463 9 c-3 -11
-2 -18 3 -15 4 2 15 -4 24 -14 16 -18 16 -20 -14 -41 -18 -13 -29 -17 -28 -9
2 7 -3 14 -9 15 -7 1 -16 2 -20 3 -3 0 2 10 11 20 10 11 19 28 21 38 5 24 4
23 11 23 4 0 4 -9 1 -20z m96 13 c-7 -2 -19 -2 -25 0 -7 3 -2 5 12 5 14 0 19
-2 13 -5z m-131 -35 c-8 -8 -9 -4 -5 13 4 13 8 18 11 10 2 -7 -1 -18 -6 -23z
m182 4 c2 -4 -11 -9 -30 -10 -23 -2 -33 1 -29 8 7 12 52 14 59 2z m-331 -9
c-7 -2 -19 -2 -25 0 -7 3 -2 5 12 5 14 0 19 -2 13 -5z m-239 -20 c-11 -4 -4
-97 10 -123 4 -8 0 -6 -8 4 -9 11 -16 38 -16 61 0 23 -6 47 -12 54 -9 10 -9
12 -1 7 6 -3 15 -1 18 5 4 5 10 7 14 3 3 -4 1 -8 -5 -11z m126 -8 c14 -19 14
-19 -2 -6 -16 12 -18 11 -18 -2 0 -9 6 -20 14 -24 12 -6 7 -13 -19 -30 -24
-16 -33 -18 -29 -8 4 8 10 15 16 15 5 0 6 4 3 10 -4 6 1 7 12 3 17 -6 17 -5 1
14 -21 23 -23 40 -5 46 6 2 12 4 12 3 1 0 7 -10 15 -21z m460 -1 c0 -8 -5 -12
-10 -9 -6 4 -8 11 -5 16 9 14 15 11 15 -7z m-268 -29 c4 -5 8 -23 8 -40 0 -21
-3 -26 -9 -16 -5 7 -6 22 -3 34 5 18 2 19 -47 15 -48 -5 -169 -56 -160 -68 2
-3 -22 -37 -54 -75 -32 -39 -70 -95 -84 -125 -44 -93 -42 -237 3 -254 17 -6
28 10 18 27 -5 9 -4 9 6 0 21 -19 4 -44 -26 -39 -44 8 -49 21 -48 120 2 136
54 275 111 297 16 6 23 15 20 23 -3 8 1 20 9 26 8 7 14 9 14 6 0 -4 20 7 44
24 25 16 53 30 63 31 10 0 34 6 53 14 40 15 72 15 82 0z m208 -26 c0 -5 -4 -9
-10 -9 -5 0 -10 7 -10 16 0 8 5 12 10 9 6 -3 10 -10 10 -16z m-581 -77 c-27
-5 -29 -1 -22 27 l6 24 18 -24 c18 -23 18 -24 -2 -27z m576 13 c39 -19 77 -60
93 -100 9 -24 9 -26 -1 -11 -31 47 -49 65 -81 80 -45 21 -88 20 -118 -4 -36
-28 -74 -33 -75 -10 -1 10 5 24 13 31 12 10 15 10 12 -1 -5 -23 17 -21 42 4
29 29 68 32 115 11z m-606 -128 c17 -21 7 -37 -19 -30 -25 7 -31 60 -13 123 5
20 8 15 12 -26 4 -28 12 -58 20 -67z m41 69 c0 -2 -8 -10 -17 -17 -16 -13 -17
-12 -4 4 13 16 21 21 21 13z m244 -17 c-4 -8 1 -9 17 -5 13 3 18 3 11 0 -18
-8 5 -35 24 -27 8 3 14 0 14 -6 0 -6 -5 -11 -11 -11 -8 0 -8 -4 -1 -12 8 -10
2 -13 -28 -12 -43 1 -63 11 -54 26 4 7 2 8 -5 4 -9 -6 -9 -11 -1 -21 7 -9 6
-16 -4 -24 -10 -9 -16 -8 -25 3 -9 11 -5 19 19 40 17 14 29 30 26 35 -4 5 0
12 6 14 19 8 20 8 12 -4z m173 -42 c36 -5 39 -17 5 -17 -21 0 -36 7 -46 22
-22 31 -20 45 2 19 9 -11 27 -22 39 -24z m128 -21 c-2 -14 -6 -30 -11 -37 -4
-7 -3 -9 4 -5 6 3 13 2 17 -4 4 -6 11 -8 16 -5 5 3 6 -2 2 -11 -4 -11 -3 -15
5 -10 8 5 8 -1 0 -24 -5 -17 -8 -42 -6 -55 3 -14 1 -22 -5 -18 -5 3 -7 25 -3
51 3 25 3 42 -1 39 -3 -4 -13 2 -20 13 -8 11 -19 18 -24 15 -12 -8 -12 -4 6
39 18 42 23 45 20 12z m31 -11 c-1 -9 -6 -15 -12 -15 -9 0 -13 19 -6 33 6 12
20 -2 18 -18z m-132 -10 c4 -12 -2 -15 -30 -13 -19 1 -38 6 -41 12 -3 5 -1 6
5 2 6 -3 13 -2 17 4 9 15 42 12 49 -5z m-169 -16 c4 -6 13 -8 21 -5 8 3 14 1
14 -5 0 -5 -12 -8 -27 -6 -16 2 -40 -2 -55 -10 -32 -15 -36 -8 -11 19 18 20
48 24 58 7z m-119 -12 c5 -4 9 -15 10 -23 2 -14 1 -14 -15 0 -10 9 -23 16 -29
16 -6 0 -13 4 -16 8 -6 11 40 9 50 -1z m480 -53 c-4 -18 -11 -36 -16 -39 -6
-4 -6 4 0 20 6 15 11 41 11 58 1 19 3 24 6 14 3 -11 2 -34 -1 -53z m-262 31
c-27 -28 -30 -72 -4 -67 12 3 11 -1 -3 -15 -15 -16 -19 -16 -27 -3 -5 8 -10
23 -10 32 0 18 46 78 60 78 5 0 -2 -11 -16 -25z m-252 -2 c8 -10 13 -24 12
-30 -1 -7 -2 -26 -3 -41 0 -16 -8 -37 -16 -48 -13 -17 -13 -16 -3 13 16 43 -2
83 -37 83 -14 0 -25 5 -25 10 0 6 7 10 16 10 8 0 12 5 9 10 -11 18 31 11 47
-7z m383 0 c13 -30 14 -43 3 -50 -7 -3 -8 -1 -4 5 3 6 -2 16 -13 21 -25 14
-74 14 -66 1 4 -6 -1 -7 -11 -3 -13 5 -15 3 -9 -7 5 -8 4 -11 -3 -6 -5 3 -13
0 -15 -6 -3 -8 -6 -6 -6 5 -2 48 106 82 124 40z m-240 -3 c3 -5 -1 -10 -10
-10 -9 0 -26 -5 -37 -11 -16 -8 -17 -13 -8 -19 10 -6 8 -14 -9 -35 -16 -21
-21 -40 -20 -79 l2 -51 6 56 c7 64 23 89 57 89 33 0 41 -39 20 -94 -13 -34
-14 -49 -5 -74 8 -25 14 -30 24 -22 13 11 41 -11 28 -23 -12 -13 13 -7 26 6
11 10 13 10 7 0 -5 -9 0 -13 13 -13 12 0 21 -2 21 -4 0 -2 3 -11 6 -19 3 -8
-2 -22 -11 -31 -23 -22 -81 -12 -116 20 -28 27 -37 30 -36 12 2 -53 -29 -67
-49 -23 -10 20 -9 27 5 40 27 24 63 18 94 -15 35 -37 97 -44 97 -10 0 19 -13
25 -52 21 -10 -1 -18 3 -18 8 0 6 -6 10 -12 8 -7 -1 -21 15 -31 36 -18 36 -18
40 -3 88 18 54 15 69 -14 69 -25 0 -40 -29 -40 -75 0 -63 -24 -103 -75 -125
-42 -18 -57 -41 -35 -55 5 -3 22 2 37 11 l28 16 -24 -21 c-33 -29 -65 -24 -69
11 -3 22 2 29 22 34 14 3 23 10 20 15 -3 5 2 6 10 3 19 -7 46 44 46 89 0 19 7
56 15 83 8 27 14 51 14 54 0 3 10 15 21 28 24 23 45 28 55 12z m-180 -71 c4
-12 2 -26 -3 -31 -8 -8 -9 -4 -5 12 5 20 3 21 -18 15 -21 -7 -22 -6 -10 9 18
22 28 20 36 -5z m-163 -8 c12 6 18 6 18 0 0 -15 -36 -32 -54 -25 -17 7 -20 16
-9 28 4 3 11 2 16 -3 7 -7 17 -7 29 0z m539 -8 c11 -15 11 -16 0 -6 -7 6 -20
9 -29 6 -10 -4 -13 -2 -8 5 10 17 21 15 37 -5z m66 -15 c-3 -7 -5 -2 -5 12 0
14 2 19 5 13 2 -7 2 -19 0 -25z m-51 -92 c-1 -8 -7 -20 -13 -28 -7 -7 -10 -25
-9 -39 4 -34 -31 -34 -39 0 -5 20 0 31 24 53 36 32 40 34 37 14z m-555 -13
c13 -16 12 -17 -3 -4 -17 13 -22 21 -14 21 2 0 10 -8 17 -17z m176 -9 c-3 -3
-12 -4 -19 -1 -8 3 -5 6 6 6 11 1 17 -2 13 -5z m-196 -16 c1 -7 3 -20 4 -28 1
-8 3 -23 4 -32 0 -9 13 -31 28 -49 l28 -33 -28 19 c-34 22 -57 64 -57 105 0
28 18 44 21 18z m692 -33 c-3 -9 -8 -14 -10 -11 -3 3 -2 9 2 15 9 16 15 13 8
-4z m-13 -28 c0 -2 -10 -12 -22 -23 l-23 -19 19 23 c18 21 26 27 26 19z m-704
-43 c13 4 24 2 24 -3 0 -5 -15 -11 -34 -13 -19 -2 -33 -1 -30 3 2 4 -1 9 -8
11 -7 3 -8 10 -3 17 6 11 10 10 17 -4 7 -12 17 -15 34 -11z m574 1 c-7 -9 -15
-13 -17 -11 -7 7 7 26 19 26 6 0 6 -6 -2 -15z m-276 -20 c7 -20 35 -19 57 1
15 14 23 14 56 4 21 -7 43 -17 48 -22 7 -7 2 -7 -15 -2 -14 4 -35 7 -47 6
-128 -11 -164 -8 -136 14 23 17 30 17 37 -1z m246 -4 c0 -8 -61 -22 -69 -15
-2 1 12 7 30 13 19 5 35 10 37 10 1 1 2 -3 2 -8z"/>
<path d="M1870 4054 c0 -8 5 -12 10 -9 6 4 8 11 5 16 -9 14 -15 11 -15 -7z"/>
<path d="M1131 4094 c0 -11 3 -14 6 -6 3 7 2 16 -1 19 -3 4 -6 -2 -5 -13z"/>
<path d="M1145 4070 c-7 -12 2 -12 30 0 19 8 19 9 -2 9 -12 1 -25 -3 -28 -9z"/>
<path d="M3870 4050 c0 -5 5 -10 11 -10 5 0 7 5 4 10 -3 6 -8 10 -11 10 -2 0
-4 -4 -4 -10z"/>
<path d="M3816 4041 c-3 -4 -1 -12 3 -19 6 -9 12 -8 24 6 15 17 15 18 -3 19
-11 1 -22 -2 -24 -6z"/>
<path d="M848 4043 c6 -2 18 -2 25 0 6 3 1 5 -13 5 -14 0 -19 -2 -12 -5z"/>
<path d="M2113 3854 c0 -16 13 -19 21 -5 3 5 0 11 -7 14 -8 3 -14 -1 -14 -9z"/>
<path d="M2810 3894 c0 -7 6 -19 13 -26 8 -7 12 -18 10 -25 -2 -6 0 -14 6 -17
8 -5 9 45 1 64 -1 3 -2 8 -2 11 1 3 -6 6 -14 6 -7 0 -14 -6 -14 -13z"/>
<path d="M1385 3820 c3 -5 11 -10 16 -10 6 0 7 5 4 10 -3 6 -11 10 -16 10 -6
0 -7 -4 -4 -10z"/>
<path d="M2349 3462 c-14 -9 -26 -21 -27 -26 0 -5 -6 -12 -12 -16 -7 -4 -9
-13 -5 -20 6 -10 10 -9 17 4 5 9 6 21 3 26 -3 6 0 10 8 10 8 0 22 9 32 20 22
24 19 24 -16 2z"/>
<path d="M2690 3338 c-15 -21 -17 -28 -6 -19 16 13 41 51 33 51 -2 0 -14 -15
-27 -32z"/>
<path d="M2249 3063 c-13 -16 -12 -17 4 -4 9 7 17 15 17 17 0 8 -8 3 -21 -13z"/>
<path d="M2206 3003 c-10 -21 -20 -63 -22 -93 l-3 -55 8 50 c5 28 16 68 25 89
21 51 15 57 -8 9z"/>
<path d="M2196 2767 c3 -10 9 -15 12 -12 3 3 0 11 -7 18 -10 9 -11 8 -5 -6z"/>
<path d="M2220 2721 c0 -6 4 -13 10 -16 6 -3 7 1 4 9 -7 18 -14 21 -14 7z"/>
<path d="M2273 2875 c0 -8 4 -12 9 -9 5 3 6 10 3 15 -9 13 -12 11 -12 -6z"/>
<path d="M2719 2703 l-24 -28 28 24 c25 23 32 31 24 31 -2 0 -14 -12 -28 -27z"/>
<path d="M2741 2696 c-8 -9 -8 -16 -2 -20 5 -4 12 -2 16 4 4 6 12 7 18 3 7 -4
6 0 -2 10 -16 21 -16 20 -30 3z"/>
<path d="M2734 2642 c3 -5 0 -13 -6 -15 -9 -4 -10 -6 -1 -6 17 -1 25 16 12 25
-7 4 -9 3 -5 -4z"/>
<path d="M2657 2166 c-16 -13 -16 -14 -1 -20 10 -4 22 -2 28 4 7 7 6 10 -3 10
-7 0 -9 5 -6 10 8 13 4 12 -18 -4z"/>
<path d="M2351 1916 c-10 -11 -9 -14 1 -12 14 2 23 15 15 22 -2 2 -10 -2 -16
-10z"/>
<path d="M2395 2040 c10 -11 20 -20 23 -20 3 0 -3 9 -13 20 -10 11 -20 20 -23
20 -3 0 3 -9 13 -20z"/>
<path d="M2600 1999 c0 -5 5 -7 10 -4 6 3 10 8 10 11 0 2 -4 4 -10 4 -5 0 -10
-5 -10 -11z"/>
<path d="M2106 1738 c3 -4 11 -5 19 -1 21 7 19 12 -4 10 -11 0 -18 -5 -15 -9z"/>
<path d="M2493 1483 c1 -25 4 -37 9 -30 4 8 3 27 -1 43 -8 26 -9 25 -8 -13z"/>
<path d="M2264 1078 c-45 -47 -74 -87 -74 -102 0 -5 12 9 26 30 14 21 42 56
62 77 20 20 34 37 31 37 -3 0 -23 -19 -45 -42z"/>
<path d="M2356 971 c-4 -5 -2 -12 3 -15 5 -4 12 -2 15 3 4 5 2 12 -3 15 -5 4
-12 2 -15 -3z"/>
<path d="M2456 642 c-3 -5 1 -9 9 -9 8 0 12 4 9 9 -3 4 -7 8 -9 8 -2 0 -6 -4
-9 -8z"/>
<path d="M317 4245 c12 -29 37 -65 45 -65 4 0 -4 17 -18 37 -32 47 -37 52 -27
28z"/>
</g>
</svg>
